
        <svg xmlns="http://www.w3.org/2000/svg" xmlns:xlink="http://www.w3.org/1999/xlink" version="1.1" width="3187.5" height="1125" viewBox="0 0 3187.5 1125">
			
			<g transform="scale(9.375) translate(10, 10)">
				<defs id="SvgjsDefs3919"><linearGradient id="SvgjsLinearGradient3924"><stop id="SvgjsStop3925" stop-color="#ef4136" offset="0"/><stop id="SvgjsStop3926" stop-color="#fbb040" offset="1"/></linearGradient></defs><g id="SvgjsG3920" featureKey="symbolFeature-0" transform="matrix(1.6666666666666667,0,0,1.6666666666666667,-3.3333333333333335,-3.3333333333333335)" fill="#fff"><g xmlns="http://www.w3.org/2000/svg" class="st0" style="display: none;"><g class="st1" style="display: inline;"><rect x="2" y="2" class="st2" width="60" height="60" style="fill: none; stroke: url(#SvgjsLinearGradient3924); stroke-width: 0.1; stroke-miterlimit: 10;"/><line class="st2" x1="32" y1="2" x2="32" y2="62" style="fill: none; stroke: url(#SvgjsLinearGradient3924); stroke-width: 0.1; stroke-miterlimit: 10;"/><line class="st2" x1="62" y1="32" x2="2" y2="32" style="fill: none; stroke: url(#SvgjsLinearGradient3924); stroke-width: 0.1; stroke-miterlimit: 10;"/><line class="st2" x1="2" y1="2" x2="62" y2="62" style="fill: none; stroke: url(#SvgjsLinearGradient3924); stroke-width: 0.1; stroke-miterlimit: 10;"/><rect x="10" y="10" class="st2" width="44" height="44" style="fill: none; stroke: url(#SvgjsLinearGradient3924); stroke-width: 0.1; stroke-miterlimit: 10;"/><line class="st2" x1="62" y1="2" x2="2" y2="62" style="fill: none; stroke: url(#SvgjsLinearGradient3924); stroke-width: 0.1; stroke-miterlimit: 10;"/><line class="st2" x1="2" y1="32" x2="32" y2="2" style="fill: none; stroke: url(#SvgjsLinearGradient3924); stroke-width: 0.1; stroke-miterlimit: 10;"/><line class="st2" x1="32" y1="2" x2="62" y2="32" style="fill: none; stroke: url(#SvgjsLinearGradient3924); stroke-width: 0.1; stroke-miterlimit: 10;"/><line class="st2" x1="62" y1="32" x2="32" y2="62" style="fill: none; stroke: url(#SvgjsLinearGradient3924); stroke-width: 0.1; stroke-miterlimit: 10;"/><line class="st2" x1="32" y1="62" x2="2" y2="32" style="fill: none; stroke: url(#SvgjsLinearGradient3924); stroke-width: 0.1; stroke-miterlimit: 10;"/><circle class="st2" cx="32" cy="32" r="21" style="fill: none; stroke: url(#SvgjsLinearGradient3924); stroke-width: 0.1; stroke-miterlimit: 10;"/></g></g><path xmlns="http://www.w3.org/2000/svg" d="M22,19v2.2L34.1,22C34,21.7,34,21.4,34,21c0-3.9,3.1-7,7-7s7,3.1,7,7c0,0.7-0.1,1.4-0.3,2l8.7,0.6L60,23v-4l-4.3-0.7  c-0.1-0.8-0.4-1.6-0.6-2.3l3.3-2.7l-2-3.5l-4,1.5c-0.5-0.6-1.1-1.2-1.7-1.7l1.5-4l-3.5-2L46,6.9c-0.7-0.3-1.5-0.5-2.3-0.6L43,2h-4  l-0.7,4.3c-0.8,0.1-1.6,0.4-2.3,0.6l-2.7-3.3l-3.5,2l1.5,4c-0.6,0.5-1.2,1.1-1.7,1.7l-4-1.5l-2,3.5l3.3,2.7  c-0.3,0.7-0.5,1.5-0.6,2.3L22,19z"/><path xmlns="http://www.w3.org/2000/svg" d="M56,48H27.5c-0.9,0-1.7-0.6-1.9-1.4L19,23l43,3L56,48z"/><path xmlns="http://www.w3.org/2000/svg" d="M58,51c0,0.6-0.4,1-1,1H27c-2.2,0-4.2-1.5-4.8-3.6L14,19.9c-0.5-1.7-2-2.9-3.8-2.9H3c-0.6,0-1-0.4-1-1l0,0c0-0.6,0.4-1,1-1  h7.2c2.7,0,5,1.8,5.8,4.3l8.2,28.5c0.4,1.3,1.6,2.2,2.9,2.2h30C57.6,50,58,50.4,58,51L58,51z"/><circle xmlns="http://www.w3.org/2000/svg" cx="27" cy="58" r="4"/><circle xmlns="http://www.w3.org/2000/svg" cx="54" cy="58" r="4"/></g><g id="SvgjsG3921" featureKey="nameFeature-0" transform="matrix(0.8760395835256276,0,0,0.8760395835256276,118.80245338136295,27.69952541395029)" fill="#fff"><path d="M1.3672 12.050999999999998 l0 4.2383 l5.918 0 l0 23.711 l4.2578 0 l0 -23.711 l5.918 0 l0 -4.2383 l-16.094 0 z M36.91378125 12.050999999999998 l0 11.836 l-11.367 0 l0 -11.797 l-4.2383 0 l0 27.91 l4.2383 0 l0 -11.875 l11.367 0 l0 11.875 l4.2383 0 l0 -27.949 l-4.2383 0 z M45.60551875 12.050999999999998 l0 27.949 l14.258 0 l0 -4.2383 l-10.02 0 l0 -7.6563 l7.7344 0 l0 -4.2383 l-7.7344 0 l0 -7.5781 l10.02 0 l0 -4.2383 l-14.258 0 z M80.62504375 40.25391 c-1.849 -0.078125 -3.5547 -0.57291 -5.1172 -1.4844 c-1.7708 -1.0287 -2.9752 -2.4088 -3.6133 -4.1406 l3.9844 -1.4648 c0.32553 0.85938 0.99609 1.556 2.0117 2.0898 c0.89844 0.45572 1.875 0.70963 2.9297 0.76172 c1.6276 0.065098 2.9752 -0.33203 4.043 -1.1914 c0.89844 -0.72916 1.3737 -1.5625 1.4258 -2.5 c0.078125 -1.7838 -1.7904 -3.2096 -5.6055 -4.2773 c-5.9766 -1.6797 -8.8736 -4.5248 -8.6914 -8.5352 c0.11719 -2.8125 1.3216 -4.9154 3.6133 -6.3086 c1.7448 -1.0677 3.8412 -1.543 6.2891 -1.4258 c2.9688 0.13021 5.3516 1.1654 7.1484 3.1055 l-3.1055 2.8906 c-1.0156 -1.0938 -2.4283 -1.6797 -4.2383 -1.7578 c-1.276 -0.05209 -2.3633 0.11066 -3.2617 0.48826 c-1.4063 0.59896 -2.142 1.6667 -2.207 3.2031 c-0.078125 1.7578 1.7904 3.1705 5.6055 4.2383 c3.4375 0.96354 5.8725 2.3828 7.3047 4.2578 c0.98959 1.3021 1.4518 2.7408 1.3867 4.3164 c-0.10416 2.2135 -1.1068 4.0885 -3.0078 5.625 c-1.7708 1.4193 -3.8932 2.1289 -6.3672 2.1289 c-0.18229 0 -0.35807 -0.0065041 -0.52734 -0.019531 z M109.5505 12.050999999999998 l0 11.836 l-11.367 0 l0 -11.797 l-4.2383 0 l0 27.91 l4.2383 0 l0 -11.875 l11.367 0 l0 11.875 l4.2383 0 l0 -27.949 l-4.2383 0 z M123.9453375 18.945 c-1.9531 1.9531 -2.9297 4.31 -2.9297 7.0703 s0.97656 5.1172 2.9297 7.0703 s4.31 2.9297 7.0703 2.9297 s5.1172 -0.97656 7.0703 -2.9297 s2.9297 -4.31 2.9297 -7.0703 s-0.97656 -5.1172 -2.9297 -7.0703 s-4.31 -2.9297 -7.0703 -2.9297 s-5.1172 0.97656 -7.0703 2.9297 z M120.9375375 36.0937 c-2.7865 -2.7865 -4.1797 -6.1459 -4.1797 -10.078 s1.3932 -7.2916 4.1797 -10.078 s6.1459 -4.1797 10.078 -4.1797 s7.2916 1.3932 10.078 4.1797 s4.1797 6.1459 4.1797 10.078 s-1.3932 7.2916 -4.1797 10.078 s-6.1459 4.1797 -10.078 4.1797 s-7.2916 -1.3932 -10.078 -4.1797 z M152.8515375 23.984 l6.0742 0.000019073 c1.0547 0 1.9596 -0.3776 2.7148 -1.1328 c0.74219 -0.74219 1.1133 -1.6406 1.1133 -2.6953 c0 -1.0677 -0.37109 -1.9791 -1.1133 -2.7344 c-0.75521 -0.75521 -1.6602 -1.1328 -2.7148 -1.1328 l-6.0742 0 l0 7.6953 z M152.8515375 40.000019073 l-4.2383 -0.000019073 l0 -27.949 l10.313 0 c2.2266 0 4.1275 0.79428 5.7031 2.3828 c1.5885 1.5755 2.3828 3.483 2.3828 5.7227 c0 2.2266 -0.79428 4.1275 -2.3828 5.7031 c-1.5755 1.5755 -3.4766 2.3633 -5.7031 2.3633 l-6.0742 0 l0 11.777 z M174.7265375 23.984 l6.0742 0.000019073 c1.0547 0 1.9596 -0.3776 2.7148 -1.1328 c0.74219 -0.74219 1.1133 -1.6406 1.1133 -2.6953 c0 -1.0677 -0.37109 -1.9791 -1.1133 -2.7344 c-0.75521 -0.75521 -1.6602 -1.1328 -2.7148 -1.1328 l-6.0742 0 l0 7.6953 z M174.7265375 40.000019073 l-4.2383 -0.000019073 l0 -27.949 l10.313 0 c2.2266 0 4.1275 0.79428 5.7031 2.3828 c1.5885 1.5755 2.3828 3.483 2.3828 5.7227 c0 2.2266 -0.79428 4.1275 -2.3828 5.7031 c-1.5755 1.5755 -3.4766 2.3633 -5.7031 2.3633 l-6.0742 0 l0 11.777 z M192.3047375 12.050999999999998 l0 27.949 l14.258 0 l0 -4.2383 l-10.02 0 l0 -7.6563 l7.7344 0 l0 -4.2383 l-7.7344 0 l0 -7.5781 l10.02 0 l0 -4.2383 l-14.258 0 z M213.9843875 23.984 l0 -7.6953 l6.0742 0 c1.0547 0 1.9596 0.3776 2.7148 1.1328 c0.74219 0.75521 1.1133 1.6667 1.1133 2.7344 c0 1.0547 -0.37109 1.9531 -1.1133 2.6953 c-0.75521 0.75521 -1.6602 1.1328 -2.7148 1.1328 l-6.0742 0 z M223.2221875 27.578 c1.4583 -0.625 2.6367 -1.6015 3.5352 -2.9297 c0.92447 -1.3542 1.3867 -2.8516 1.3867 -4.4922 c0 -2.2396 -0.79428 -4.1471 -2.3828 -5.7227 c-1.5755 -1.5885 -3.4766 -2.3828 -5.7031 -2.3828 l-10.313 0 l0 27.949 l4.2383 0 l0 -11.777 l4.7852 0 l6.1133 11.777 l4.7852 0 z"/></g>
			</g>
		</svg>
	