
        <svg xmlns="http://www.w3.org/2000/svg" xmlns:xlink="http://www.w3.org/1999/xlink" version="1.1" width="3162.3403770144037" 
        height="1058.4984797808622" viewBox="0 0 3162.3403770144037 1058.4984797808622">
			<rect fill="#000000" width="3162.3403770144037" height="1058.4984797808622"/>
			<g transform="scale(8.117018850720173) translate(10, 10)">
				<defs id="SvgjsDefs7649"><linearGradient id="SvgjsLinearGradient7656"><stop id="SvgjsStop7657" stop-color="#8f5e25" offset="0"></stop><stop id="SvgjsStop7658" stop-color="#fbf4a1" offset="0.5"></stop><stop id="SvgjsStop7659" stop-color="#8f5e25" offset="1"></stop></linearGradient><linearGradient id="SvgjsLinearGradient7660"><stop id="SvgjsStop7661" stop-color="#8f5e25" offset="0"></stop><stop id="SvgjsStop7662" stop-color="#fbf4a1" offset="0.5"></stop><stop id="SvgjsStop7663" stop-color="#8f5e25" offset="1"></stop></linearGradient><linearGradient id="SvgjsLinearGradient7664"><stop id="SvgjsStop7665" stop-color="#8f5e25" offset="0"></stop><stop id="SvgjsStop7666" stop-color="#fbf4a1" offset="0.5"></stop><stop id="SvgjsStop7667" stop-color="#8f5e25" offset="1"></stop></linearGradient></defs><g id="SvgjsG7650" featureKey="symbolFeature-0" transform="matrix(1.3492139561093428,0,0,1.3492139561093428,-5.5115390621750935,-5.5115390621750935)" fill="url(#SvgjsLinearGradient7656)"><g xmlns="http://www.w3.org/2000/svg"><circle fill="url(#SvgjsLinearGradient7656)" cx="45" cy="44.404" r="4.621"></circle><g><path fill="url(#SvgjsLinearGradient7656)" d="M31.56,35.003c2.132,2.208,4.766,3.639,7.549,4.287c-0.549-2.804-1.886-5.487-4.018-7.695    c-2.132-2.209-4.766-3.639-7.549-4.288C28.091,30.11,29.428,32.794,31.56,35.003z"></path><path fill="url(#SvgjsLinearGradient7656)" d="M35.003,58.439c2.208-2.131,3.639-4.766,4.287-7.549c-2.803,0.55-5.486,1.888-7.695,4.019    c-2.208,2.133-3.64,4.767-4.288,7.55C30.11,61.908,32.793,60.572,35.003,58.439z"></path><path fill="url(#SvgjsLinearGradient7656)" d="M58.44,54.998c-2.133-2.209-4.767-3.64-7.55-4.287c0.549,2.804,1.887,5.487,4.019,7.694    c2.132,2.209,4.767,3.64,7.549,4.288C61.908,59.89,60.57,57.206,58.44,54.998z"></path><path fill="url(#SvgjsLinearGradient7656)" d="M54.999,31.561c-2.21,2.132-3.641,4.766-4.288,7.549c2.803-0.551,5.486-1.886,7.694-4.019    c2.21-2.132,3.641-4.766,4.288-7.548C59.89,28.091,57.206,29.429,54.999,31.561z"></path></g><g><path fill="url(#SvgjsLinearGradient7656)" d="M45,4.085c-20.801,27.626,0,27.927,0,27.927S65.801,31.712,45,4.085z"></path><path fill="url(#SvgjsLinearGradient7656)" d="M45,85.914c20.8-27.625,0-27.926,0-27.926S24.199,58.289,45,85.914z"></path></g><g><path fill="url(#SvgjsLinearGradient7656)" d="M4.085,45c27.626,20.801,27.927,0,27.927,0S31.711,24.199,4.085,45z"></path><path fill="url(#SvgjsLinearGradient7656)" d="M85.915,45c-27.626-20.801-27.927,0-27.927,0S58.289,65.802,85.915,45z"></path></g></g></g><g id="SvgjsG7651" featureKey="nameFeature-0" transform="matrix(1.237099426739126,0,0,1.237099426739126,129.11899495169502,9.983270699251474)" fill="url(#SvgjsLinearGradient7660)"><path d="M3.88 21.2 c0.4 0.56 0.84 1.08 1.32 1.6 c0.36 0.44 0.8 0.72 1.28 0.96 c0.36 0.12 0.68 0.28 1 0.44 c0.56 0.36 1.04 0.72 1.48 1.16 c0.4 0.4 0.8 0.84 1.24 1.16 c0.12 0.12 0.2 0.24 0.36 0.36 l0.32 0 c0.12 0.04 0.2 0.08 0.28 0.16 c0.28 0.28 0.48 0.6 0.56 1 c0.04 0.32 0.12 0.64 0.24 0.96 c0.12 0.4 0.16 0.84 0.2 1.28 l0 1.16 c0 0.2 0 0.44 0.12 0.64 c0.04 0.08 0.04 0.2 0.04 0.32 c0.04 0.24 0.04 0.48 0.08 0.68 c0.08 0.56 0.08 1.08 -0.04 1.64 c-0.04 0.08 -0.04 0.2 -0.04 0.32 c-0.04 0.08 -0.04 0.2 -0.08 0.32 c-0.16 0.4 -0.24 0.84 -0.4 1.28 c0 0.04 -0.04 0.12 -0.08 0.16 c-0.2 0.28 -0.36 0.6 -0.56 0.88 c-0.08 0.12 -0.16 0.24 -0.28 0.36 c-0.32 0.08 -0.64 0.2 -0.96 0.4 c-0.08 0.08 -0.2 0.12 -0.36 0.12 c-0.12 0 -0.28 0.04 -0.44 0.04 c-0.24 0.04 -0.4 0.12 -0.56 0.32 s-0.36 0.28 -0.6 0.32 l-0.2 0 c-0.24 0.04 -0.52 0.12 -0.76 0.12 c-0.28 0 -0.52 -0.08 -0.76 -0.12 l-0.4 0 c-0.24 0 -0.48 -0.04 -0.68 -0.16 c-0.36 -0.16 -0.76 -0.28 -1.12 -0.36 c-0.28 -0.08 -0.52 -0.2 -0.76 -0.36 s-0.48 -0.32 -0.72 -0.44 c-0.6 -0.32 -1 -0.88 -1.36 -1.48 c-0.04 -0.2 -0.12 -0.4 -0.12 -0.6 c-0.04 -0.4 -0.16 -0.76 -0.2 -1.16 c-0.12 -0.6 -0.24 -1.2 -0.2 -1.8 c0.04 -0.2 0.04 -0.4 0.08 -0.6 c0.04 -0.28 0.08 -0.56 0.08 -0.84 c0 -0.16 0 -0.32 0.04 -0.48 c0.12 -0.28 0.08 -0.52 0.04 -0.76 c-0.08 -0.24 -0.12 -0.44 -0.2 -0.68 c0.08 -0.2 0.16 -0.4 0.24 -0.64 c0.04 -0.12 0.16 -0.2 0.28 -0.2 l0.48 0 c0.44 -0.04 0.92 -0.04 1.36 -0.04 c0.2 0 0.32 0.08 0.44 0.2 c0.08 0.08 0.12 0.16 0.12 0.24 c-0.04 0.24 0 0.44 0.2 0.6 c0.08 0.08 0.12 0.2 0.08 0.36 c-0.04 0.08 -0.08 0.2 -0.12 0.32 c-0.08 0.2 -0.12 0.44 -0.08 0.68 c0.08 0.24 0.04 0.52 0.08 0.76 c0 0.28 -0.04 0.52 0.08 0.8 c0.04 0.12 0.04 0.24 0 0.36 c-0.12 0.36 -0.08 0.68 -0.04 1.04 c0 0.16 0.08 0.32 0.24 0.44 c0.36 0.32 0.72 0.6 1.2 0.76 c0.12 0.04 0.28 0.12 0.4 0.16 c0.2 0.08 0.4 0.12 0.64 0.12 c0.16 0 0.36 0 0.52 0.08 c0.56 0.12 1.08 0.04 1.6 -0.16 c0.2 -0.04 0.4 -0.16 0.6 -0.24 c0.16 -0.44 0.32 -0.84 0.28 -1.32 l0 -2.84 l0 -0.4 c0 -0.28 -0.08 -0.52 -0.36 -0.64 c-0.08 -0.08 -0.16 -0.16 -0.2 -0.28 c-0.08 -0.36 -0.32 -0.64 -0.6 -0.88 c-0.52 -0.48 -1 -0.96 -1.52 -1.44 c-0.12 -0.08 -0.2 -0.2 -0.36 -0.24 c-0.16 0 -0.36 -0.08 -0.48 -0.16 c-0.28 -0.16 -0.56 -0.24 -0.88 -0.32 c-0.8 -0.2 -1.52 -0.56 -2.12 -1.12 c-0.52 -0.48 -0.84 -1.04 -1.16 -1.56 c-0.16 -0.24 -0.28 -0.52 -0.4 -0.76 c-0.2 -0.36 -0.24 -0.8 -0.36 -1.16 c-0.04 -0.08 0 -0.16 0 -0.2 c0.08 -0.28 0.12 -0.52 -0.04 -0.76 c-0.04 -0.48 -0.16 -0.92 -0.12 -1.4 c0.04 -0.44 0.08 -0.88 0.04 -1.32 l0 -0.16 c0.12 -0.32 0.12 -0.6 0.12 -0.92 l0 -1.88 c-0.04 -0.4 0.08 -0.76 0.32 -1.08 c0.08 -0.12 0.12 -0.2 0.2 -0.28 c0.28 -0.36 0.6 -0.76 0.92 -1.12 c0.04 -0.08 0.12 -0.12 0.24 -0.2 c0.36 -0.16 0.64 -0.4 0.96 -0.64 c0.24 -0.2 0.52 -0.36 0.84 -0.48 c0.28 -0.08 0.52 -0.24 0.8 -0.24 c0.12 0 0.24 -0.04 0.4 -0.04 c0.32 0 0.64 -0.04 0.96 -0.08 c0.2 -0.04 0.44 0 0.64 0.04 c0.36 0.04 0.68 0.08 1.04 0.08 c0.24 0.04 0.52 0.04 0.76 0.12 c0.2 0.04 0.4 0.16 0.6 0.28 c0.32 0.2 0.56 0.52 0.76 0.84 c0.16 0.24 0.28 0.48 0.48 0.68 c0.12 0.16 0.24 0.32 0.28 0.52 c0.04 0.12 0.08 0.24 0.16 0.36 c0.12 0.36 0.24 0.72 0.28 1.12 c0.04 0.16 0.08 0.32 0.08 0.44 c0.04 0.32 0.16 0.6 0.4 0.8 c0.12 0.08 0.12 0.16 0.12 0.28 c0 0.48 0 0.96 -0.04 1.44 c-0.08 0.36 -0.08 0.72 -0.08 1.08 c0 0.52 -0.04 1 -0.16 1.48 c-0.04 0.2 -0.04 0.36 0 0.52 c0.04 0.12 0.04 0.2 0.04 0.32 c0 0.08 0 0.12 -0.04 0.2 c-0.16 0.16 -0.32 0.28 -0.52 0.36 c-0.44 0.12 -0.88 0.2 -1.36 0.28 c-0.04 0.04 -0.12 0 -0.16 -0.04 c-0.12 -0.12 -0.28 -0.28 -0.4 -0.44 c0 -0.04 -0.04 -0.12 -0.04 -0.16 c-0.04 -0.28 -0.08 -0.52 -0.08 -0.8 c0.04 -0.36 0 -0.72 0 -1.08 c0 -0.28 0.04 -0.56 -0.04 -0.84 c-0.04 -0.04 -0.04 -0.08 -0.04 -0.12 c0.08 -0.72 -0.12 -1.44 -0.28 -2.12 c0 -0.04 0 -0.08 -0.04 -0.12 c-0.2 -0.36 -0.36 -0.8 -0.68 -1.12 c-0.2 -0.24 -0.44 -0.48 -0.68 -0.68 c-0.28 -0.24 -0.6 -0.36 -0.88 -0.52 l-0.2 0 c-0.44 0 -0.84 0.16 -1.24 0.36 c-0.08 0.04 -0.12 0.12 -0.2 0.16 l-0.56 0.56 s-0.4 0.4 -0.44 0.68 c0 0.12 -0.04 0.2 -0.04 0.28 c-0.04 0.08 -0.08 0.2 -0.04 0.32 c0.04 0.32 -0.16 0.68 -0.12 1 l0 2.88 c0 0.16 0.04 0.32 0.04 0.52 z M20.246000000000002 26.4 c0.04 -2.96 0.04 -5.92 0.04 -8.88 c0 -0.52 0.04 -1.08 0.08 -1.6 c0 -0.28 -0.04 -0.56 -0.04 -0.8 c0 -0.04 -0.04 -0.08 -0.08 -0.08 c-0.16 -0.04 -0.32 -0.04 -0.44 -0.04 l-4.44 0 l-0.72 0 c-0.12 0 -0.24 -0.04 -0.32 -0.08 c-0.08 0 -0.16 -0.08 -0.2 -0.16 c0 -0.16 -0.04 -0.28 -0.08 -0.44 c-0.24 -0.68 -0.24 -1.36 -0.16 -2.08 c0.04 -0.16 0.12 -0.32 0.16 -0.48 c0.04 -0.08 0.12 -0.16 0.2 -0.16 c0.08 -0.04 0.16 -0.04 0.24 -0.04 l0.52 0 l12.6 0 l1 0 c0.12 0 0.2 0 0.32 0.04 c0.12 0 0.2 0.04 0.24 0.16 c0.2 0.96 0.28 1.92 0.04 2.84 c-0.08 0.2 -0.2 0.32 -0.36 0.36 c-0.24 0 -0.44 0.04 -0.64 0.04 l-3.88 0 l-0.6 0 c-0.08 0.04 -0.16 0.12 -0.16 0.2 l0 0.24 c0.08 0.4 0.04 0.8 0.04 1.16 l0 19.08 c0 0.4 -0.04 0.8 -0.04 1.2 l0 1.08 l0 0.68 c-0.04 0.12 -0.12 0.24 -0.24 0.28 c-0.6 0.08 -1.2 0.16 -1.84 0.16 c-0.28 -0.04 -0.56 -0.08 -0.8 -0.16 c-0.16 -0.04 -0.24 -0.16 -0.24 -0.32 c-0.04 -0.44 -0.08 -0.88 -0.08 -1.36 c-0.08 -1.48 -0.08 -2.96 -0.08 -4.44 l0 -2.68 l0 -2 l0 -1.72 l-0.04 0 z M47.252 28.880000000000003 l-0.12 0.24 l0 0.44 c-0.04 1.56 -0.04 3.12 -0.08 4.68 c-0.04 1.2 -0.12 2.36 -0.2 3.56 c0 0.2 -0.08 0.4 -0.08 0.6 c-0.04 0.16 -0.12 0.24 -0.28 0.32 c-0.16 0.04 -0.32 0.08 -0.48 0.16 c-0.56 0.12 -1.08 0.16 -1.64 0 c-0.16 -0.08 -0.28 -0.2 -0.32 -0.36 c-0.04 -0.12 -0.08 -0.24 -0.08 -0.36 c-0.08 -0.68 -0.16 -1.32 -0.16 -2 c-0.08 -1.16 -0.04 -2.32 -0.08 -3.48 c-0.04 -0.96 -0.04 -1.92 -0.08 -2.84 c0 -0.12 0.04 -0.24 -0.08 -0.36 c-0.24 -0.08 -0.48 -0.04 -0.72 0 c-1.4 0.24 -2.84 0.48 -4.24 0.72 l-0.36 0.12 c-0.04 0.04 -0.12 0.12 -0.12 0.16 c-0.04 0.16 -0.04 0.28 -0.04 0.44 l-0.12 5.64 c0 0.4 -0.08 0.76 -0.12 1.12 c-0.04 0.2 0.04 0.48 -0.16 0.64 c-0.12 0.12 -0.36 0.12 -0.52 0.2 c-0.28 0.12 -0.6 0.16 -0.88 0.16 l-0.6 0 c-0.24 0 -0.44 -0.08 -0.64 -0.16 c-0.12 0 -0.2 -0.08 -0.2 -0.16 c-0.12 -0.52 -0.24 -1.04 -0.24 -1.56 c-0.04 -1.68 -0.04 -3.36 -0.04 -5.04 l0 -0.68 c-0.04 -0.2 -0.12 -0.28 -0.28 -0.28 c-0.36 0 -0.68 0.04 -1.04 0.08 c-0.68 0.04 -1.32 -0.08 -2 -0.2 c-0.08 -0.04 -0.16 -0.12 -0.2 -0.2 c-0.08 -0.36 -0.2 -0.68 -0.24 -1 c-0.04 -0.36 0 -0.64 0.04 -0.96 c0.04 -0.16 0.16 -0.28 0.32 -0.32 c0.28 -0.08 0.56 -0.12 0.88 -0.12 c0.76 -0.04 1.52 -0.2 2.24 -0.36 c0.08 0 0.16 -0.04 0.2 -0.08 c0.12 -0.24 0.08 -0.52 0.08 -0.76 l0 -6 l0 -3.16 c-0.04 -0.44 0.04 -0.88 0.24 -1.28 c0.36 -0.84 0.72 -1.68 1.12 -2.52 c0 -0.08 0.08 -0.16 0.16 -0.24 c0 -0.04 0.08 -0.04 0.08 -0.08 c0.4 -0.64 1.04 -0.96 1.56 -1.36 c0.28 -0.2 0.56 -0.32 0.92 -0.32 c0.2 -0.04 0.4 -0.08 0.6 -0.08 c0.12 -0.04 0.28 -0.04 0.4 -0.08 c0.36 -0.12 0.68 -0.2 1.04 -0.04 c0.08 0.04 0.2 0.04 0.28 0.04 c0.28 -0.12 0.52 -0.04 0.8 0 c0.44 0.12 0.92 0.28 1.28 0.56 c0.24 0.16 0.36 0.4 0.64 0.52 c0.24 0.08 0.36 0.32 0.52 0.48 c0.32 0.32 0.6 0.64 0.92 0.92 c0.24 0.24 0.44 0.52 0.64 0.8 c0.08 0.12 0.12 0.32 0.2 0.48 c0.12 0.36 0.24 0.68 0.24 1.08 c0 0.2 0.04 0.4 0.08 0.56 c0.08 0.36 0.16 0.68 0.24 1.04 c0.28 0.8 0.32 1.64 0.52 2.44 c0.12 0.64 0.12 1.24 0.12 1.88 l0 0.04 l0 2.76 c0 0.12 0 0.24 0.16 0.36 c0.84 -0.08 1.76 -0.04 2.64 -0.04 c0.12 0 0.24 0 0.36 0.04 c0.04 0 0.16 0.08 0.16 0.16 c0.04 0.28 0.12 0.6 0.16 0.92 c0.04 0.44 0 0.84 0 1.28 c0 0.16 -0.04 0.28 -0.08 0.44 s-0.16 0.28 -0.36 0.32 c-0.16 0.04 -0.28 0.04 -0.44 0.04 l-1.4 0 c-0.4 0 -0.76 0 -1.12 0.04 z M43.612 23.28 l0 -2.4 c0 -0.28 0 -0.56 -0.16 -0.84 c-0.08 -0.12 -0.08 -0.24 -0.12 -0.36 c-0.04 -0.4 -0.16 -0.76 -0.36 -1.12 l-0.24 -0.6 c-0.16 -0.52 -0.4 -1 -0.8 -1.4 c-0.24 -0.24 -0.44 -0.48 -0.68 -0.72 c-0.08 -0.08 -0.24 -0.16 -0.36 -0.2 c-0.2 -0.08 -0.44 -0.12 -0.68 -0.12 c-0.72 0.04 -1 0.28 -1.12 0.92 c-0.04 0.04 -0.04 0.08 -0.04 0.12 c0 0.32 -0.12 0.6 -0.2 0.88 c-0.12 0.36 -0.2 0.72 -0.24 1.08 c-0.04 0.28 -0.08 0.52 -0.2 0.8 c-0.2 0.56 -0.32 1.2 -0.32 1.8 c0 0.48 -0.04 0.96 -0.04 1.4 c0 0.2 0 0.4 0.04 0.6 c0.08 0.16 0.04 0.36 0.04 0.52 c-0.12 0.52 -0.12 1.04 -0.08 1.56 c0.04 0.48 0.08 0.96 0.08 1.48 c0 0.08 0 0.2 0.04 0.28 c0 0.04 0.04 0.08 0.08 0.08 c0.12 0.04 0.2 0.04 0.32 0 c0.6 -0.08 1.2 -0.16 1.8 -0.28 c0.84 -0.2 1.68 -0.32 2.48 -0.48 c0.2 0 0.36 -0.04 0.52 -0.08 s0.24 -0.12 0.24 -0.32 l0 -0.52 l0 -2.08 z M67.738 28.880000000000003 l-0.12 0.24 l0 0.44 c-0.04 1.56 -0.04 3.12 -0.08 4.68 c-0.04 1.2 -0.12 2.36 -0.2 3.56 c0 0.2 -0.08 0.4 -0.08 0.6 c-0.04 0.16 -0.12 0.24 -0.28 0.32 c-0.16 0.04 -0.32 0.08 -0.48 0.16 c-0.56 0.12 -1.08 0.16 -1.64 0 c-0.16 -0.08 -0.28 -0.2 -0.32 -0.36 c-0.04 -0.12 -0.08 -0.24 -0.08 -0.36 c-0.08 -0.68 -0.16 -1.32 -0.16 -2 c-0.08 -1.16 -0.04 -2.32 -0.08 -3.48 c-0.04 -0.96 -0.04 -1.92 -0.08 -2.84 c0 -0.12 0.04 -0.24 -0.08 -0.36 c-0.24 -0.08 -0.48 -0.04 -0.72 0 c-1.4 0.24 -2.84 0.48 -4.24 0.72 l-0.36 0.12 c-0.04 0.04 -0.12 0.12 -0.12 0.16 c-0.04 0.16 -0.04 0.28 -0.04 0.44 l-0.12 5.64 c0 0.4 -0.08 0.76 -0.12 1.12 c-0.04 0.2 0.04 0.48 -0.16 0.64 c-0.12 0.12 -0.36 0.12 -0.52 0.2 c-0.28 0.12 -0.6 0.16 -0.88 0.16 l-0.6 0 c-0.24 0 -0.44 -0.08 -0.64 -0.16 c-0.12 0 -0.2 -0.08 -0.2 -0.16 c-0.12 -0.52 -0.24 -1.04 -0.24 -1.56 c-0.04 -1.68 -0.04 -3.36 -0.04 -5.04 l0 -0.68 c-0.04 -0.2 -0.12 -0.28 -0.28 -0.28 c-0.36 0 -0.68 0.04 -1.04 0.08 c-0.68 0.04 -1.32 -0.08 -2 -0.2 c-0.08 -0.04 -0.16 -0.12 -0.2 -0.2 c-0.08 -0.36 -0.2 -0.68 -0.24 -1 c-0.04 -0.36 0 -0.64 0.04 -0.96 c0.04 -0.16 0.16 -0.28 0.32 -0.32 c0.28 -0.08 0.56 -0.12 0.88 -0.12 c0.76 -0.04 1.52 -0.2 2.24 -0.36 c0.08 0 0.16 -0.04 0.2 -0.08 c0.12 -0.24 0.08 -0.52 0.08 -0.76 l0 -6 l0 -3.16 c-0.04 -0.44 0.04 -0.88 0.24 -1.28 c0.36 -0.84 0.72 -1.68 1.12 -2.52 c0 -0.08 0.08 -0.16 0.16 -0.24 c0 -0.04 0.08 -0.04 0.08 -0.08 c0.4 -0.64 1.04 -0.96 1.56 -1.36 c0.28 -0.2 0.56 -0.32 0.92 -0.32 c0.2 -0.04 0.4 -0.08 0.6 -0.08 c0.12 -0.04 0.28 -0.04 0.4 -0.08 c0.36 -0.12 0.68 -0.2 1.04 -0.04 c0.08 0.04 0.2 0.04 0.28 0.04 c0.28 -0.12 0.52 -0.04 0.8 0 c0.44 0.12 0.92 0.28 1.28 0.56 c0.24 0.16 0.36 0.4 0.64 0.52 c0.24 0.08 0.36 0.32 0.52 0.48 c0.32 0.32 0.6 0.64 0.92 0.92 c0.24 0.24 0.44 0.52 0.64 0.8 c0.08 0.12 0.12 0.32 0.2 0.48 c0.12 0.36 0.24 0.68 0.24 1.08 c0 0.2 0.04 0.4 0.08 0.56 c0.08 0.36 0.16 0.68 0.24 1.04 c0.28 0.8 0.32 1.64 0.52 2.44 c0.12 0.64 0.12 1.24 0.12 1.88 l0 0.04 l0 2.76 c0 0.12 0 0.24 0.16 0.36 c0.84 -0.08 1.76 -0.04 2.64 -0.04 c0.12 0 0.24 0 0.36 0.04 c0.04 0 0.16 0.08 0.16 0.16 c0.04 0.28 0.12 0.6 0.16 0.92 c0.04 0.44 0 0.84 0 1.28 c0 0.16 -0.04 0.28 -0.08 0.44 s-0.16 0.28 -0.36 0.32 c-0.16 0.04 -0.28 0.04 -0.44 0.04 l-1.4 0 c-0.4 0 -0.76 0 -1.12 0.04 z M64.098 23.28 l0 -2.4 c0 -0.28 0 -0.56 -0.16 -0.84 c-0.08 -0.12 -0.08 -0.24 -0.12 -0.36 c-0.04 -0.4 -0.16 -0.76 -0.36 -1.12 l-0.24 -0.6 c-0.16 -0.52 -0.4 -1 -0.8 -1.4 c-0.24 -0.24 -0.44 -0.48 -0.68 -0.72 c-0.08 -0.08 -0.24 -0.16 -0.36 -0.2 c-0.2 -0.08 -0.44 -0.12 -0.68 -0.12 c-0.72 0.04 -1 0.28 -1.12 0.92 c-0.04 0.04 -0.04 0.08 -0.04 0.12 c0 0.32 -0.12 0.6 -0.2 0.88 c-0.12 0.36 -0.2 0.72 -0.24 1.08 c-0.04 0.28 -0.08 0.52 -0.2 0.8 c-0.2 0.56 -0.32 1.2 -0.32 1.8 c0 0.48 -0.04 0.96 -0.04 1.4 c0 0.2 0 0.4 0.04 0.6 c0.08 0.16 0.04 0.36 0.04 0.52 c-0.12 0.52 -0.12 1.04 -0.08 1.56 c0.04 0.48 0.08 0.96 0.08 1.48 c0 0.08 0 0.2 0.04 0.28 c0 0.04 0.04 0.08 0.08 0.08 c0.12 0.04 0.2 0.04 0.32 0 c0.6 -0.08 1.2 -0.16 1.8 -0.28 c0.84 -0.2 1.68 -0.32 2.48 -0.48 c0.2 0 0.36 -0.04 0.52 -0.08 s0.24 -0.12 0.24 -0.32 l0 -0.52 l0 -2.08 z M73.18400000000001 25.08 l0 -11.2 c0 -0.36 -0.04 -0.72 0.04 -1.08 c0.04 -0.16 0 -0.32 0 -0.48 l0 -0.6 c0.04 -0.16 0.12 -0.24 0.28 -0.28 c0.08 -0.04 0.16 -0.04 0.24 -0.08 c0.12 0 0.24 -0.04 0.32 -0.12 c0.16 -0.08 0.32 -0.12 0.52 -0.16 l0.48 0 c0.28 0 0.6 0 0.92 -0.08 c0.28 -0.04 0.52 -0.04 0.8 0.04 c0.36 0.08 0.72 0.08 1.08 0 c0.24 -0.04 0.52 -0.08 0.76 0 c0.16 0.04 0.36 0 0.52 0 c0.32 -0.04 0.6 -0.08 0.88 0 c0.04 0.04 0.08 0.04 0.12 0 c0.48 -0.12 0.88 0.12 1.36 0.16 c0.24 0.04 0.52 0.12 0.72 0.32 c0.04 0.08 0.12 0.12 0.2 0.12 c0.16 0.04 0.28 0.12 0.36 0.2 c0.2 0.12 0.4 0.28 0.56 0.4 c0.12 0.12 0.24 0.28 0.4 0.36 c0.4 0.28 0.6 0.72 0.92 1.08 c0.2 0.2 0.36 0.4 0.36 0.72 c0 0.08 0.08 0.16 0.12 0.24 c0.04 0.04 0.08 0.12 0.08 0.16 c0.04 0.48 0.28 0.88 0.28 1.32 c0.04 0.56 0.24 1.12 0.44 1.64 c0.08 0.32 0.16 0.6 0.2 0.92 c0.08 0.4 0.12 0.8 0.2 1.2 c0.04 0.08 0.04 0.12 0.04 0.2 c-0.04 0.6 0.08 1.16 -0.12 1.76 c-0.08 0.28 -0.04 0.56 -0.04 0.88 c0 0.16 -0.04 0.32 -0.12 0.44 c-0.2 0.28 -0.28 0.64 -0.2 0.96 c0.04 0.32 0 0.6 -0.12 0.88 c-0.16 0.36 -0.2 0.72 -0.28 1.12 c-0.04 0.16 -0.08 0.32 -0.2 0.48 c-0.04 0.12 -0.08 0.2 -0.12 0.32 c-0.08 0.2 -0.2 0.36 -0.32 0.52 c-0.08 0.08 -0.16 0.2 -0.24 0.32 c-0.04 0.12 -0.08 0.24 0 0.32 c0.12 0.24 0.24 0.44 0.4 0.64 c0.32 0.52 0.68 1.08 1 1.6 c0.4 0.76 0.8 1.52 1.04 2.36 c0.16 0.4 0.28 0.76 0.52 1.08 c0.16 0.2 0.24 0.44 0.32 0.68 c0.2 0.44 0.36 0.88 0.64 1.28 c0.12 0.16 0.16 0.32 0.2 0.48 c0.08 0.28 0.16 0.48 0.36 0.64 c0.16 0.12 0.24 0.28 0.28 0.48 c0 0.16 0.08 0.36 0.16 0.52 s0.04 0.28 -0.08 0.4 c-0.12 0.16 -0.24 0.28 -0.4 0.36 c-0.4 0.28 -0.8 0.52 -1.2 0.76 c-0.2 0.12 -0.44 0.2 -0.64 0.24 c-0.12 0.08 -0.28 0.04 -0.36 -0.08 c-0.2 -0.16 -0.4 -0.36 -0.56 -0.6 c-0.4 -0.64 -0.8 -1.32 -1.04 -2.04 c-0.24 -0.68 -0.52 -1.28 -0.84 -1.92 c-0.2 -0.44 -0.4 -0.92 -0.56 -1.4 c-0.16 -0.44 -0.36 -0.92 -0.6 -1.36 l-1.2 -2.04 l-0.12 -0.24 c-0.12 -0.12 -0.2 -0.16 -0.36 -0.12 c-0.12 0.04 -0.24 0.08 -0.32 0.12 c-0.36 0.16 -0.76 0.24 -1.12 0.24 c-0.28 0 -0.56 -0.04 -0.8 0.08 l-0.36 0 c-0.24 0.04 -0.48 -0.16 -0.72 -0.08 s-0.44 0.04 -0.68 0 c-0.16 -0.04 -0.36 -0.04 -0.52 -0.08 c-0.56 0 -0.6 0.04 -0.6 0.56 l0 5.08 c0 0.72 -0.04 1.4 -0.16 2.12 c-0.04 0.36 -0.24 0.68 -0.36 1 c-0.04 0.08 -0.12 0.12 -0.2 0.16 c-0.16 0.04 -0.32 0.04 -0.44 0.16 c-0.04 0.04 -0.12 0.04 -0.2 0.04 l-0.88 0 s-0.48 -0.12 -0.56 -0.4 c-0.28 -0.52 -0.4 -1.12 -0.44 -1.68 c-0.04 -0.36 -0.04 -0.68 -0.04 -1.04 l0 -11 l0 0 z M76.46400000000001 20.56 l0 5.36 l0 0.6 c0 0.12 0.08 0.2 0.2 0.24 c0.28 0.04 0.56 0.08 0.88 0.04 c0.52 0.08 1.04 0.04 1.56 0.04 c0.28 0.04 0.52 0 0.8 -0.04 c0.64 -0.12 1.16 -0.4 1.64 -0.76 c0.24 -0.2 0.44 -0.4 0.56 -0.68 c0.16 -0.44 0.32 -0.84 0.4 -1.28 c0.04 -0.56 0.12 -1.08 0.24 -1.64 c0.04 -0.24 0.12 -0.48 0.16 -0.72 c0.08 -0.56 0.04 -1.12 0.04 -1.68 c0 -0.08 -0.04 -0.12 -0.04 -0.2 c-0.28 -1.04 -0.44 -2.12 -0.76 -3.16 c-0.32 -1.16 -0.16 -0.96 -1 -1.68 c-0.08 -0.08 -0.16 -0.12 -0.2 -0.2 c-0.24 -0.2 -0.48 -0.32 -0.8 -0.36 c-0.4 -0.08 -0.84 -0.08 -1.28 -0.12 c-0.56 0.08 -1.16 0 -1.76 0.04 l-0.32 0 c-0.24 0 -0.32 0.08 -0.32 0.36 l0 0.52 l0 5.32 z M107.83600000000001 36.04 c0.08 -0.12 0.2 -0.24 0.28 -0.32 c0.16 -0.2 0.24 -0.4 0.28 -0.6 c0.04 -0.84 0.08 -1.64 0.08 -2.44 s0 -1.56 0.04 -2.36 c0 -0.44 0.08 -0.88 0.12 -1.32 c0 -0.12 0 -0.24 0.04 -0.36 c0.28 -0.96 0.32 -0.92 1.32 -1.12 l0.36 0 c0.2 0.04 0.44 0.08 0.64 0.08 s0.4 -0.04 0.56 -0.08 c0.12 0 0.28 0.08 0.32 0.2 c0.16 0.52 0.32 1 0.28 1.56 c-0.04 0.36 0 0.76 0 1.12 c0 1.16 -0.08 2.28 -0.2 3.44 c-0.04 0.16 -0.08 0.36 -0.08 0.52 c0 0.72 -0.2 1.4 -0.4 2.08 l-0.24 0.84 c-0.24 0.2 -0.44 0.4 -0.64 0.6 c-0.2 0.16 -0.36 0.36 -0.52 0.56 c-0.12 0.16 -0.24 0.32 -0.48 0.4 c-0.16 0.04 -0.28 0.2 -0.44 0.28 c-0.2 0.12 -0.44 0.2 -0.68 0.2 c-0.44 -0.04 -0.88 -0.04 -1.32 -0.04 c-0.12 0 -0.2 0 -0.32 -0.04 c-0.4 -0.08 -0.84 -0.12 -1.28 -0.12 c-0.12 0 -0.24 -0.04 -0.36 -0.08 c-0.28 -0.04 -0.52 -0.16 -0.8 -0.2 c-0.24 -0.04 -0.44 -0.08 -0.64 -0.28 c-0.08 -0.08 -0.2 -0.12 -0.32 -0.2 c-0.16 -0.08 -0.36 -0.16 -0.52 -0.2 c-0.16 -0.08 -0.28 -0.16 -0.36 -0.28 c-0.2 -0.32 -0.48 -0.56 -0.72 -0.76 c-0.12 -0.16 -0.12 -0.32 -0.12 -0.44 c-0.04 -0.28 -0.12 -0.52 -0.24 -0.8 c-0.16 -0.36 -0.28 -0.72 -0.4 -1.08 c-0.28 -0.8 -0.44 -1.64 -0.4 -2.52 l0 -4.36 c0 -0.52 -0.04 -1.08 -0.04 -1.6 c0 -0.8 0 -1.56 0.08 -2.36 c0.04 -0.56 0.08 -1.16 -0.04 -1.76 l0 -0.44 c0.08 -0.8 0.08 -1.6 0.2 -2.4 c0.08 -0.36 0.12 -0.72 0.2 -1.08 c0.12 -0.32 0.16 -0.64 0.2 -0.96 c0.04 -0.44 0.12 -0.84 0.24 -1.28 c0.08 -0.36 0.16 -0.72 0.16 -1.08 c0.04 -0.24 0.12 -0.48 0.28 -0.68 c0.16 -0.24 0.32 -0.44 0.4 -0.68 c0.04 -0.08 0.12 -0.16 0.2 -0.24 c0.4 -0.32 0.84 -0.64 1.28 -0.96 c0.08 -0.04 0.16 -0.08 0.2 -0.08 c0.32 0 0.6 -0.12 0.88 -0.12 c0.72 -0.08 1.44 -0.24 2.2 -0.24 c0.44 -0.08 0.88 0.08 1.32 0.08 c0.04 0 0.08 0.04 0.12 0.04 c0.28 0.2 0.6 0.28 0.88 0.4 c0.32 0.2 0.64 0.36 0.84 0.72 c0.08 0.16 0.24 0.28 0.4 0.4 s0.28 0.28 0.32 0.48 c0.04 0.28 0.16 0.52 0.32 0.72 c0.16 0.32 0.28 0.64 0.32 1 c0.04 0.48 0.16 0.96 0.12 1.44 c0 0.12 0.04 0.24 0.08 0.36 l0 0.24 c-0.16 0.48 -0.04 1 -0.08 1.52 c-0.04 0.88 -0.04 1.76 -0.08 2.64 c0 0.56 -0.12 1.12 -0.24 1.68 c-0.04 0.12 -0.08 0.2 -0.12 0.32 c-0.08 0.12 -0.12 0.16 -0.24 0.2 c-0.44 0.08 -0.84 0.16 -1.32 0.08 c-0.36 -0.04 -0.76 -0.04 -1.16 -0.16 c-0.16 -0.08 -0.24 -0.16 -0.28 -0.4 c0 -0.12 0 -0.24 0.04 -0.36 c0 -0.28 0.04 -0.52 0.08 -0.8 c0.12 -0.84 0.2 -1.64 0.2 -2.48 l0 -2.56 c0 -0.72 -0.2 -1.32 -0.56 -1.88 c-0.2 -0.32 -0.52 -0.52 -0.92 -0.52 c-0.52 0 -1.08 0.04 -1.6 0.16 c-0.08 0 -0.2 0.04 -0.28 0.12 c-0.28 0.28 -0.56 0.6 -0.68 1 c-0.12 0.48 -0.28 0.96 -0.24 1.44 c0 0.04 0 0.12 -0.04 0.16 c-0.16 0.68 -0.24 1.36 -0.32 2.04 c-0.04 0.32 -0.12 0.68 -0.12 1 l0 0.68 c-0.04 0.24 -0.08 0.52 0 0.8 l0 0.44 c-0.04 0.32 -0.08 0.68 -0.08 1 c0 0.52 -0.04 1 -0.12 1.48 c-0.04 0.12 -0.04 0.24 0 0.36 c0.08 0.4 0.08 0.84 0 1.24 c0 0.16 0 0.32 0.04 0.52 c0 0.28 0.04 0.56 0.04 0.88 c0 0.36 0 0.72 -0.04 1.08 c0 0.32 0 0.64 -0.04 0.96 l0 0.36 c0.04 0.48 0.04 0.96 0.04 1.4 c0.04 0.64 0.12 1.28 0.4 1.88 c0.12 0.32 0.24 0.68 0.4 1 c0.08 0.24 0.24 0.36 0.44 0.48 c0.44 0.28 0.96 0.36 1.48 0.4 c0.44 0.04 0.92 0.08 1.4 0.04 z M120.28200000000001 39.72 l-0.36 -0.12 s-0.24 -0.04 -0.32 0 s-0.2 0.04 -0.28 0.04 c-0.6 -0.08 -1.32 -0.24 -1.8 -0.8 c-0.04 0 -0.08 -0.04 -0.12 -0.08 c-0.64 -0.4 -1.04 -1 -1.6 -1.52 c-0.2 -0.16 -0.32 -0.36 -0.44 -0.56 c-0.08 -0.16 -0.16 -0.36 -0.2 -0.52 c-0.12 -0.28 -0.2 -0.56 -0.2 -0.84 c0.04 -0.2 -0.04 -0.4 -0.08 -0.6 c-0.08 -0.28 -0.12 -0.56 -0.2 -0.84 c-0.2 -0.68 -0.28 -1.36 -0.44 -2.04 c-0.08 -0.36 -0.08 -0.72 -0.08 -1.08 c0 -1.24 -0.04 -2.48 -0.04 -3.72 s0.04 -2.48 0.04 -3.76 l0 -1.8 c0.04 -0.28 0 -0.56 -0.16 -0.8 c-0.04 -0.08 -0.04 -0.2 -0.04 -0.32 c0.04 -0.08 0.04 -0.12 0.04 -0.2 c0.08 -0.44 0.08 -0.88 -0.04 -1.32 c-0.04 -0.2 -0.04 -0.4 0 -0.6 c0.08 -0.36 0.12 -0.68 0 -1 l0 -0.28 c0.04 -0.12 0.04 -0.2 0.08 -0.32 c0.12 -0.28 0.16 -0.6 0.16 -0.92 c0 -0.24 0.04 -0.48 0.16 -0.72 c0.2 -0.48 0.52 -0.88 0.72 -1.36 c0.04 -0.08 0.08 -0.16 0.16 -0.2 c0.4 -0.44 0.8 -0.88 1.28 -1.2 c0.32 -0.2 0.6 -0.44 0.92 -0.68 c0.16 -0.16 0.36 -0.24 0.6 -0.28 c0.32 -0.08 0.6 -0.12 0.92 -0.2 c0.16 -0.08 0.32 -0.08 0.44 -0.08 c0.16 -0.04 0.32 -0.04 0.48 -0.08 c0.12 -0.04 0.28 -0.04 0.4 0.04 c0.04 0.04 0.12 0.04 0.16 0.08 c0.2 0.12 0.44 0.16 0.68 0.16 l0.4 0 s0.28 0.04 0.4 0.16 c0.04 0.04 0.08 0.08 0.12 0.08 c0.12 0.16 0.28 0.24 0.44 0.28 c0.44 0.16 0.72 0.44 1 0.8 c0.16 0.24 0.36 0.52 0.6 0.72 c0.08 0.08 0.16 0.2 0.2 0.32 c0.12 0.28 0.24 0.52 0.32 0.84 c0.04 0.2 0.16 0.4 0.24 0.6 c0.12 0.24 0.2 0.52 0.24 0.76 c0 0.36 0.08 0.72 0.16 1.08 c0.08 0.32 0.12 0.68 0.12 1 c-0.04 0.32 0 0.64 0.12 0.92 c0.04 0.12 0.04 0.24 0.04 0.32 c0.04 0.2 0.04 0.4 -0.08 0.52 c-0.08 0.12 -0.08 0.28 -0.08 0.4 l0 0.72 l0 13.24 c0.04 0.6 -0.12 1.2 -0.36 1.76 l-0.84 1.92 c-0.08 0.12 -0.16 0.2 -0.24 0.32 c-0.36 0.52 -0.92 0.84 -1.4 1.2 c-0.2 0.16 -0.4 0.24 -0.64 0.28 c-0.12 0 -0.28 0.04 -0.4 0.04 c-0.4 0 -0.8 0.12 -1.2 0.24 z M117.28200000000001 26.52 l0 4.48 l0 0.68 c0 0.12 0 0.24 0.04 0.32 c0.16 0.28 0.2 0.56 0.24 0.84 c0.04 0.12 0.08 0.28 0.12 0.4 c0.16 0.4 0.32 0.76 0.48 1.16 c0.08 0.16 0.16 0.36 0.24 0.48 c0.28 0.32 0.56 0.64 0.8 0.92 c0.32 0.36 0.76 0.48 1.24 0.44 c0.36 -0.04 0.64 -0.16 0.8 -0.52 c0.04 -0.08 0.04 -0.16 0.08 -0.24 c0 -0.36 0.12 -0.72 0.24 -1.08 c0.08 -0.28 0.16 -0.56 0.16 -0.84 c0 -0.2 0.08 -0.4 0.12 -0.6 c0.24 -0.56 0.32 -1.16 0.36 -1.76 c0 -0.44 0 -0.84 0.04 -1.28 c0 -0.16 0 -0.32 -0.08 -0.48 c-0.04 -0.08 -0.04 -0.2 0 -0.32 c0.12 -0.52 0.08 -1.04 0.04 -1.56 c-0.08 -0.76 -0.04 -1.56 -0.04 -2.32 c0 -1.48 0.04 -2.92 0.04 -4.4 c0.04 -0.24 0.04 -0.44 -0.04 -0.68 c-0.04 -0.08 -0.04 -0.2 -0.04 -0.32 c-0.04 -0.56 -0.12 -1.12 -0.24 -1.68 s-0.24 -1.12 -0.24 -1.72 c0 -0.28 -0.12 -0.56 -0.24 -0.84 c-0.08 -0.16 -0.2 -0.28 -0.28 -0.44 c-0.08 -0.2 -0.24 -0.32 -0.44 -0.4 c-0.08 -0.08 -0.2 -0.12 -0.28 -0.16 c-0.6 -0.2 -1.12 -0.16 -1.6 0.24 c-0.28 0.24 -0.52 0.48 -0.76 0.76 c-0.16 0.12 -0.24 0.32 -0.28 0.52 c-0.08 0.4 -0.16 0.84 -0.24 1.24 l0 0.2 c0 0.2 -0.04 0.4 0 0.6 c0 0.24 -0.16 0.44 -0.2 0.68 l0 0.04 c-0.04 0.52 -0.12 1.04 -0.16 1.56 c-0.04 0.36 -0.04 0.76 0.04 1.12 c0.04 0.12 0.04 0.24 0.04 0.36 c0 1.56 -0.04 3.16 0.04 4.6 z M127.68800000000002 14.96 c-0.12 -0.52 -0.16 -1 -0.16 -1.48 c0 -0.24 -0.04 -0.52 0 -0.8 c0.08 -0.52 0.16 -0.64 0.72 -0.68 c0.16 -0.04 0.32 -0.04 0.44 0 c0.76 0 1.52 -0.08 2.24 -0.32 c0.08 0 0.16 -0.04 0.2 -0.04 c0.48 -0.04 0.92 -0.08 1.4 -0.12 c0.2 0 0.4 0 0.56 0.04 c0.32 0 0.6 0.04 0.88 0.08 c0.12 0.04 0.24 0.04 0.36 0.08 c0.44 0.12 0.88 0.24 1.36 0.2 c0.24 0 0.48 0.04 0.72 0.16 c0.16 0.08 0.36 0.16 0.52 0.2 c0.16 0.08 0.32 0.12 0.48 0.2 c0.48 0.28 0.92 0.6 1.4 0.92 c0.12 0.08 0.2 0.2 0.28 0.32 c0.32 0.36 0.64 0.76 1 1.08 c0.2 0.16 0.32 0.36 0.44 0.56 c0.32 0.44 0.6 0.92 0.76 1.48 c0.12 0.36 0.24 0.72 0.32 1.12 c0 0.2 0.08 0.36 0.16 0.56 c0.04 0.12 0.08 0.24 0.08 0.36 c0.04 0.72 0.16 1.44 0.28 2.16 l0 0.08 c-0.04 0.76 0.16 1.52 0.16 2.32 c0.04 0.72 0.08 1.44 0.2 2.16 c0.04 0.24 0.12 0.48 0.16 0.72 c0 0.16 0.04 0.32 0.04 0.52 c0.04 0.48 0.08 0.96 0.08 1.44 c0 0.52 -0.04 1.04 -0.04 1.52 c0 0.52 -0.08 1.04 -0.16 1.52 c-0.08 0.6 -0.08 1.16 -0.24 1.76 l0 0.36 c0 0.24 -0.04 0.48 -0.16 0.68 c-0.08 0.24 -0.16 0.48 -0.2 0.72 c0 0.12 -0.04 0.28 -0.12 0.4 c-0.12 0.28 -0.16 0.56 -0.16 0.88 c0 0.2 -0.08 0.36 -0.2 0.52 c-0.16 0.2 -0.28 0.44 -0.36 0.72 c-0.08 0.24 -0.28 0.4 -0.44 0.56 c0 0.04 -0.04 0.08 -0.12 0.12 c-0.28 0.08 -0.52 0.28 -0.76 0.52 c-0.04 0.04 -0.16 0.08 -0.28 0.08 c-0.24 0 -0.44 0.04 -0.68 0.12 c-0.64 0.08 -1.28 0.28 -1.96 0.28 c-0.6 0.04 -1.2 0.04 -1.8 0 c-1.08 -0.04 -2.12 0 -3.16 0 c-0.12 0 -0.24 0 -0.36 0.04 l-0.2 0 c-0.56 0 -1.08 -0.04 -1.6 -0.08 c-0.08 -0.04 -0.2 -0.08 -0.28 -0.12 c-0.16 -0.24 -0.44 -0.28 -0.68 -0.4 c-0.08 -0.04 -0.16 -0.12 -0.16 -0.24 c0.04 -0.48 0 -1 0.2 -1.48 c0.04 -0.16 0.12 -0.32 0.16 -0.48 c0.12 -0.28 0.32 -0.36 0.6 -0.4 c0.2 -0.04 0.44 0 0.64 0.08 c0.08 0 0.2 -0.08 0.2 -0.16 c0.04 -0.24 0.04 -0.44 0.04 -0.68 l0 -7.48 l0 -8.56 l0 -3.48 c0 -0.16 0 -0.32 -0.04 -0.44 c0 -0.08 -0.08 -0.12 -0.16 -0.16 c-0.32 -0.04 -0.64 -0.04 -0.92 0.04 c-0.36 0.12 -0.72 0.12 -1.08 0 c-0.16 -0.08 -0.4 -0.08 -0.6 -0.08 z M133.568 14.8 c0 0.08 -0.04 0.12 -0.04 0.2 l0 0.68 l0 19.36 l0 0.52 l0 0.24 c0.04 0.08 0.12 0.16 0.2 0.16 l0.44 0 c0.64 0.04 1.24 0 1.84 0.04 c0.48 0 0.92 -0.08 1.36 -0.16 c0.28 -0.04 0.56 -0.16 0.84 -0.24 c0.16 -0.08 0.24 -0.16 0.24 -0.32 c0.04 -0.32 0.12 -0.6 0.24 -0.84 c0.12 -0.28 0.16 -0.56 0.24 -0.84 c0.04 -0.12 0.08 -0.2 0.12 -0.28 c0.12 -0.2 0.16 -0.4 0.2 -0.6 c0.08 -0.48 0.12 -0.92 0.2 -1.4 c0.2 -1.2 0.2 -2.4 0.2 -3.6 c0 -0.4 -0.04 -0.8 -0.16 -1.16 c-0.08 -0.16 -0.08 -0.32 -0.12 -0.48 c-0.04 -0.4 -0.04 -0.8 -0.12 -1.16 c-0.04 -0.16 -0.04 -0.36 -0.04 -0.52 c0.04 -0.6 0 -1.16 -0.08 -1.76 c-0.04 -0.24 -0.04 -0.52 -0.08 -0.8 c0 -0.12 0 -0.28 -0.04 -0.4 c-0.08 -0.68 -0.2 -1.36 -0.32 -2.04 c-0.08 -0.64 -0.32 -1.2 -0.52 -1.8 c-0.04 -0.2 -0.16 -0.36 -0.28 -0.52 c-0.28 -0.28 -0.56 -0.6 -0.8 -0.92 c-0.24 -0.28 -0.48 -0.48 -0.8 -0.64 c-0.4 -0.28 -0.8 -0.4 -1.28 -0.52 c-0.2 -0.04 -0.4 -0.08 -0.64 -0.12 s-0.52 -0.12 -0.8 -0.08 z M148.25400000000002 14.559999999999999 c-1.08 -0.2 -2.2 -0.2 -3.32 -0.16 c-0.44 0.04 -0.56 -0.04 -0.76 -0.44 c-0.2 -0.44 -0.24 -0.92 -0.24 -1.44 c0 -0.56 0.08 -0.68 0.72 -0.92 c0.36 -0.16 0.72 -0.16 1.12 -0.2 c0.84 -0.04 1.68 0 2.52 0.04 l1.24 0 c0.56 -0.04 1.16 -0.04 1.72 -0.04 c0.08 0 0.2 0 0.28 0.04 c0.28 0.12 0.52 0.12 0.8 0.12 l2.16 0 c0.16 0 0.36 -0.04 0.52 0.04 c0 0.04 0.04 0.08 0.08 0.12 c0.04 0.44 0.12 0.84 0.16 1.28 c0 0.2 -0.04 0.4 0 0.56 c0 0.28 -0.08 0.56 -0.16 0.8 c-0.04 0.16 -0.16 0.28 -0.32 0.28 c-0.4 0.04 -0.84 0.04 -1.24 0.04 l-1.64 0 c-0.24 0 -0.36 0.12 -0.36 0.36 l0 0.6 c0 0.4 0.04 0.84 0.04 1.24 l0 6.64 c0 1.56 0.04 3.16 0 4.72 l0 6.76 c0 0.24 0 0.44 0.04 0.68 c0 0.04 0.04 0.08 0.08 0.08 c0.12 0.04 0.24 0.08 0.36 0.08 c0.56 0 1.12 0.16 1.68 0.04 l1.56 0.12 c0.08 0.04 0.16 0.04 0.24 0.04 l0.36 0.24 c0.08 0.08 0.12 0.2 0.16 0.32 c0.16 0.44 0.12 0.88 0.04 1.32 c0 0.04 -0.04 0.08 -0.04 0.12 c-0.2 0.76 -0.28 0.76 -0.96 0.68 c-0.04 0 -0.12 -0.04 -0.16 -0.04 c-0.64 0 -1.28 -0.04 -1.92 -0.08 c-0.44 0 -0.84 0.04 -1.24 0.08 c-0.24 0.04 -0.48 0.04 -0.64 0.24 c-0.4 0.12 -0.8 0.24 -1.2 0.28 c-0.36 0.04 -0.68 -0.12 -1 -0.28 c-0.08 -0.04 -0.16 -0.12 -0.24 -0.16 c-0.12 -0.04 -0.24 -0.08 -0.36 -0.08 c-0.2 0 -0.4 0.04 -0.6 0 c-0.2 0 -0.44 0 -0.64 0.08 c-0.16 0.08 -0.32 0.12 -0.52 0.12 c-0.24 0 -0.52 0.04 -0.8 0.12 c-0.48 0.12 -0.96 0.04 -1.44 -0.12 c-0.16 -0.12 -0.32 -0.28 -0.44 -0.4 c-0.04 -0.04 -0.04 -0.08 -0.04 -0.12 c0 -0.2 0.04 -0.36 0.04 -0.52 c0.04 -0.24 0.08 -0.48 0.04 -0.76 c-0.04 -0.2 0 -0.44 0.08 -0.64 c0.04 -0.24 0.24 -0.44 0.52 -0.48 c0.48 -0.04 1 -0.08 1.48 -0.12 l0.72 -0.12 s0.48 -0.08 0.72 0 c0.2 0.04 0.4 0 0.6 -0.04 c0.32 -0.04 0.36 -0.08 0.36 -0.44 l0 -1.76 c-0.04 -0.92 -0.04 -1.8 -0.04 -2.68 l0 -6.68 c0.04 -1.96 0.04 -3.92 0.08 -5.88 c0 -0.96 0 -1.92 0.08 -2.88 l0 -0.24 c0.04 -0.24 -0.08 -0.4 -0.28 -0.56 z M159.46 11.48 c0.6 -0.28 1.2 -0.4 1.84 -0.4 c0.16 0 0.36 0 0.56 0.04 c0.16 0.04 0.24 0.12 0.28 0.28 c0.08 0.16 0.12 0.28 0.16 0.44 c0.08 0.36 0.12 0.72 0.2 1.08 c0.04 0.12 0.08 0.24 0.12 0.4 c0.08 0.12 0.16 0.24 0.2 0.36 c0.16 0.68 0.36 1.32 0.52 2 c0.12 0.4 0.24 0.8 0.44 1.2 c0.28 0.56 0.56 1.12 0.84 1.72 c0.24 0.52 0.52 1.04 0.76 1.6 c0.32 0.64 0.6 1.32 0.92 2 c0.12 0.28 0.32 0.56 0.48 0.88 c0.52 0.92 0.92 1.88 1.2 2.92 c0.04 0.2 0.12 0.4 0.2 0.6 c0.44 1.04 0.88 2.04 1.32 3.04 c0.16 0.32 0.32 0.6 0.52 0.88 c0.24 0.32 0.48 0.68 0.68 1.04 c0.12 0.24 0.28 0.4 0.4 0.6 c0.04 0.04 0.08 0.04 0.12 0.08 c0.04 0 0.12 -0.08 0.12 -0.16 l0 -0.72 l0 -19.72 l0 -0.72 c0 -0.08 0.04 -0.16 0.08 -0.24 c0.76 -0.2 1.52 -0.2 2.28 -0.2 c0.08 0 0.16 0.04 0.28 0.04 c0.36 0.12 0.48 0.12 0.52 0.6 c0.08 0.88 0.04 1.76 0.04 2.64 l0 2.84 c0.04 0.28 0 0.56 0 0.84 c0 0.56 0.04 1.12 0 1.72 c0 0.56 0.04 1.16 0 1.76 l0 1.68 l0 1.8 l0 2.2 c0 0.8 -0.04 1.64 -0.04 2.44 c0 0.36 0 0.68 -0.04 1 c0 1.44 0 2.84 -0.04 4.28 c0 0.52 -0.04 1.04 -0.08 1.56 l0 0.28 c-0.04 0.52 0.12 0.96 0.6 1.24 c0.24 0.12 0.32 0.28 0.32 0.52 c0.04 0.12 0.04 0.28 0.04 0.4 c0 0.16 -0.08 0.24 -0.16 0.32 c-0.28 0.2 -0.48 0.52 -0.68 0.8 c-0.08 0.16 -0.16 0.28 -0.28 0.4 c-0.24 0.2 -0.48 0.32 -0.76 0.28 c-0.12 -0.04 -0.2 0 -0.28 0 c-0.28 0 -0.48 -0.12 -0.64 -0.32 c-0.2 -0.24 -0.44 -0.48 -0.64 -0.72 c-0.16 -0.16 -0.28 -0.36 -0.36 -0.52 c-0.28 -0.6 -0.64 -1.2 -1 -1.72 c-0.2 -0.28 -0.4 -0.56 -0.6 -0.8 c-0.28 -0.24 -0.52 -0.56 -0.72 -0.88 c-0.16 -0.2 -0.32 -0.4 -0.44 -0.64 c-0.12 -0.16 -0.24 -0.32 -0.36 -0.52 c-0.2 -0.44 -0.44 -0.84 -0.72 -1.2 s-0.52 -0.76 -0.72 -1.16 c-0.32 -0.56 -0.6 -1.12 -0.84 -1.72 c-0.12 -0.44 -0.32 -0.84 -0.52 -1.24 c-0.36 -0.76 -0.68 -1.56 -0.92 -2.36 c-0.12 -0.44 -0.32 -0.84 -0.52 -1.24 c-0.48 -0.88 -0.92 -1.72 -1.28 -2.64 c-0.04 -0.12 -0.12 -0.24 -0.2 -0.36 l-0.04 0 l-0.08 0 l0 0.56 l0 7.48 c-0.04 2 -0.04 4.04 -0.08 6.08 c0 0.76 -0.04 1.52 -0.16 2.28 c-0.04 0.16 -0.04 0.32 -0.04 0.48 c-0.04 0.2 -0.16 0.36 -0.36 0.44 c-0.52 0.2 -1.04 0.24 -1.6 0.16 c-0.16 0 -0.36 -0.08 -0.52 -0.12 c-0.12 -0.04 -0.16 -0.12 -0.16 -0.24 c-0.04 -0.12 -0.04 -0.24 -0.08 -0.36 c0 -0.16 0 -0.32 -0.04 -0.48 c-0.08 -0.64 -0.12 -1.28 -0.16 -1.92 l0 -0.96 c-0.04 -0.4 -0.04 -0.8 -0.04 -1.24 l0 -20.28 c0 -0.44 0.04 -0.88 -0.08 -1.32 c-0.04 -0.08 0 -0.2 0.04 -0.28 c0.12 -0.28 0.16 -0.56 0.2 -0.88 z M194.386 40.36 c-0.2 0.16 -0.44 0.2 -0.64 0.28 c-0.44 0.12 -0.92 0.2 -1.4 0.28 l-0.28 0 c-0.44 -0.04 -0.6 0 -0.72 -0.64 c-0.04 -0.2 -0.08 -0.4 -0.12 -0.64 c0 -0.28 -0.08 -0.56 -0.16 -0.84 c-0.24 -0.56 -0.36 -1.16 -0.52 -1.72 c-0.04 -0.16 -0.04 -0.28 -0.04 -0.44 c-0.04 -0.32 -0.08 -0.6 -0.12 -0.92 c-0.08 -0.48 -0.16 -0.44 -0.48 -0.2 c-0.24 0.16 -0.44 0.4 -0.6 0.6 s-0.32 0.36 -0.56 0.44 c-0.08 0.04 -0.12 0.08 -0.2 0.12 c-0.36 0.28 -0.76 0.36 -1.2 0.32 c-0.36 -0.04 -0.68 -0.04 -1 -0.04 l-0.24 0 c-0.48 -0.12 -0.92 -0.2 -1.4 -0.16 c-0.08 0 -0.16 -0.04 -0.24 -0.04 c-0.36 -0.16 -0.72 -0.24 -1.08 -0.32 c-0.12 -0.04 -0.28 -0.08 -0.32 -0.16 c-0.2 -0.24 -0.48 -0.36 -0.76 -0.44 c-0.28 -0.12 -0.52 -0.28 -0.72 -0.56 c-0.04 -0.08 -0.12 -0.2 -0.2 -0.28 c-0.36 -0.2 -0.48 -0.52 -0.52 -0.88 c0 -0.24 -0.08 -0.44 -0.16 -0.64 c-0.16 -0.4 -0.32 -0.84 -0.44 -1.28 c-0.28 -0.8 -0.32 -1.6 -0.32 -2.44 c0.04 -1.68 0.08 -3.36 0.08 -5.04 l0 -0.64 c0 -0.88 0.04 -1.72 0.16 -2.6 c0.04 -0.56 0.12 -1.12 0 -1.72 c-0.04 -0.16 -0.04 -0.32 0 -0.48 c0.04 -0.4 0.08 -0.8 0.08 -1.16 l0 -0.28 c0.2 -0.68 0.16 -1.36 0.4 -2 c0.08 -0.28 0.12 -0.56 0.16 -0.84 c0.08 -0.52 0.2 -1 0.32 -1.48 c0.08 -0.24 0.12 -0.52 0.16 -0.8 c0.04 -0.36 0.12 -0.68 0.4 -0.96 c0.08 -0.08 0.16 -0.2 0.2 -0.32 c0.08 -0.24 0.28 -0.44 0.48 -0.56 c0.36 -0.24 0.72 -0.52 1.08 -0.76 c0.12 -0.08 0.24 -0.12 0.4 -0.12 c0.24 0 0.48 -0.04 0.72 -0.12 l0.04 0 c0.84 -0.04 1.68 -0.2 2.52 -0.16 c0.36 0 0.68 0.08 1 0.12 c0.08 0 0.16 0.04 0.2 0.08 c0.2 0.08 0.4 0.2 0.6 0.28 c0.4 0.2 0.76 0.4 1 0.8 c0.08 0.16 0.24 0.28 0.4 0.4 c0.12 0.12 0.24 0.24 0.28 0.4 c0.04 0.32 0.2 0.6 0.32 0.88 c0.2 0.32 0.28 0.64 0.32 1.04 l0 0.2 c0.16 0.68 0.12 1.4 0.08 2.08 c-0.04 0.44 0 0.88 0 1.28 c-0.04 0.24 -0.04 0.44 -0.08 0.68 l0 0.48 c0 0.96 -0.12 1.92 -0.32 2.88 c0 0.08 -0.04 0.16 -0.08 0.28 c-0.08 0.24 -0.24 0.36 -0.52 0.4 c-0.48 0.08 -0.96 0.12 -1.44 0 c-0.16 -0.04 -0.36 -0.04 -0.56 -0.08 c-0.12 0 -0.28 -0.08 -0.4 -0.12 c-0.08 -0.04 -0.16 -0.12 -0.16 -0.24 c0 -0.2 0 -0.36 0.04 -0.56 c0.08 -0.72 0.2 -1.44 0.28 -2.16 c0.08 -1.16 0.12 -2.32 0.12 -3.52 c0 -0.2 0 -0.44 -0.04 -0.64 c-0.04 -0.52 -0.28 -0.96 -0.56 -1.4 c-0.2 -0.28 -0.48 -0.44 -0.88 -0.44 c-0.52 0 -1.04 0.04 -1.56 0.12 c-0.16 0.04 -0.32 0.12 -0.44 0.24 c-0.32 0.36 -0.56 0.72 -0.64 1.2 c-0.08 0.4 -0.2 0.8 -0.2 1.2 c-0.04 0.12 -0.04 0.24 -0.08 0.36 c-0.2 0.68 -0.2 1.44 -0.4 2.12 c0 0.72 -0.12 1.44 -0.12 2.16 c0 0.84 0 1.68 -0.16 2.52 c-0.04 0.28 -0.12 0.56 -0.04 0.84 c0.04 0.12 0 0.2 0 0.32 c0.04 0.28 0 0.6 -0.04 0.92 s0.04 0.6 0.04 0.92 c0.04 0.16 0 0.28 0 0.44 c-0.04 0.12 -0.04 0.24 -0.04 0.36 c-0.04 1.12 -0.04 2.2 -0.04 3.32 c-0.04 0.64 0.08 1.24 0.32 1.84 c0.12 0.32 0.24 0.68 0.36 1 c0.12 0.24 0.24 0.4 0.48 0.52 c0.28 0.16 0.56 0.28 0.88 0.32 c0.2 0.04 0.36 0.08 0.56 0.08 c0.48 0.04 0.92 0.16 1.36 0.08 c0.2 -0.08 0.32 -0.24 0.44 -0.4 c0.12 -0.12 0.2 -0.32 0.2 -0.52 c0.08 -1 0.16 -2.04 0.12 -3.08 c0 -0.4 -0.08 -0.8 -0.16 -1.2 c-0.04 -0.16 -0.16 -0.28 -0.32 -0.28 c-0.56 -0.08 -1.16 -0.28 -1.76 -0.28 c-0.28 0.04 -0.52 -0.12 -0.76 -0.2 c-0.08 -0.04 -0.16 -0.12 -0.2 -0.2 c-0.2 -0.64 -0.24 -1.32 -0.04 -2 c0.04 -0.24 0.2 -0.4 0.48 -0.48 c0.04 0 0.12 -0.08 0.2 -0.04 c0.28 0 0.52 -0.12 0.76 -0.2 c0.28 -0.04 0.52 0.12 0.76 0.16 l0.6 0 c0.24 0 0.48 0 0.72 0.08 l0.2 0 c0.44 -0.12 0.84 0 1.24 0.16 c0.12 0.04 0.2 0.04 0.32 0.04 c0.16 0.04 0.32 0.04 0.48 0.08 c0.12 0.04 0.24 0.04 0.36 0 c0.2 -0.12 0.44 -0.12 0.72 -0.16 c0.16 0.12 0.36 0.24 0.52 0.36 c0.12 0.28 0.2 0.52 0.32 0.8 c0.08 0.24 0.16 0.48 0.2 0.76 c0 0.08 0 0.16 0.04 0.2 c0.24 0.56 0.16 1.12 0.08 1.64 c-0.12 0.64 -0.12 1.24 -0.04 1.88 c0.08 0.68 0.2 1.36 0.4 2.04 c0.28 0.96 0.44 1.96 0.64 2.96 c0.04 0.16 0.04 0.28 0.04 0.44 c0.04 0.24 0.08 0.48 0.24 0.68 c0.16 0.24 0.24 0.52 0.28 0.8 c0.04 0.32 0.12 0.6 0.2 0.92 c0.08 0.24 0.12 0.52 0.12 0.76 l0 0.92 z"></path></g><g id="SvgjsG7652" featureKey="sloganFeature-0" transform="matrix(1.1764017067047567,0,0,1.1764017067047567,133.97064850663332,64.83565532612405)" fill="url(#SvgjsLinearGradient7664)"><path d="M0.88 12.54 l0 -5.6 c0 -0.18 -0.02 -0.36 0.02 -0.54 c0.02 -0.08 0 -0.16 0 -0.24 l0 -0.3 c0.02 -0.08 0.06 -0.12 0.14 -0.14 c0.04 -0.02 0.08 -0.02 0.12 -0.04 c0.06 0 0.12 -0.02 0.16 -0.06 c0.08 -0.04 0.16 -0.06 0.26 -0.08 l0.24 0 c0.14 0 0.3 0 0.46 -0.04 c0.14 -0.02 0.26 -0.02 0.4 0.02 c0.18 0.04 0.36 0.04 0.54 0 c0.12 -0.02 0.26 -0.04 0.38 0 c0.08 0.02 0.18 0 0.26 0 c0.16 -0.02 0.3 -0.04 0.44 0 c0.02 0.02 0.04 0.02 0.06 0 c0.24 -0.06 0.44 0.06 0.68 0.08 c0.12 0.02 0.26 0.06 0.36 0.16 c0.02 0.04 0.06 0.06 0.1 0.06 c0.08 0.02 0.14 0.06 0.18 0.1 c0.1 0.06 0.2 0.14 0.28 0.2 c0.06 0.06 0.12 0.14 0.2 0.18 c0.2 0.14 0.3 0.36 0.46 0.54 c0.1 0.1 0.18 0.2 0.18 0.36 c0 0.04 0.04 0.08 0.06 0.12 c0.02 0.02 0.04 0.06 0.04 0.08 c0.02 0.24 0.14 0.44 0.14 0.66 c0.02 0.28 0.12 0.56 0.22 0.82 c0.04 0.16 0.08 0.3 0.1 0.46 c0.04 0.2 0.06 0.4 0.1 0.6 c0.02 0.04 0.02 0.06 0.02 0.1 c-0.02 0.3 0.04 0.58 -0.06 0.88 c-0.04 0.14 -0.02 0.28 -0.02 0.44 c0 0.08 -0.02 0.16 -0.06 0.22 c-0.1 0.14 -0.14 0.32 -0.1 0.48 c0.02 0.16 0 0.3 -0.06 0.44 c-0.08 0.18 -0.1 0.36 -0.14 0.56 c-0.02 0.08 -0.04 0.16 -0.1 0.24 c-0.02 0.06 -0.04 0.1 -0.06 0.16 c-0.04 0.1 -0.1 0.18 -0.16 0.26 c-0.04 0.04 -0.08 0.1 -0.12 0.16 c-0.02 0.06 -0.04 0.12 0 0.16 c0.06 0.12 0.12 0.22 0.2 0.32 c0.16 0.26 0.34 0.54 0.5 0.8 c0.2 0.38 0.4 0.76 0.52 1.18 c0.08 0.2 0.14 0.38 0.26 0.54 c0.08 0.1 0.12 0.22 0.16 0.34 c0.1 0.22 0.18 0.44 0.32 0.64 c0.06 0.08 0.08 0.16 0.1 0.24 c0.04 0.14 0.08 0.24 0.18 0.32 c0.08 0.06 0.12 0.14 0.14 0.24 c0 0.08 0.04 0.18 0.08 0.26 s0.02 0.14 -0.04 0.2 c-0.06 0.08 -0.12 0.14 -0.2 0.18 c-0.2 0.14 -0.4 0.26 -0.6 0.38 c-0.1 0.06 -0.22 0.1 -0.32 0.12 c-0.06 0.04 -0.14 0.02 -0.18 -0.04 c-0.1 -0.08 -0.2 -0.18 -0.28 -0.3 c-0.2 -0.32 -0.4 -0.66 -0.52 -1.02 c-0.12 -0.34 -0.26 -0.64 -0.42 -0.96 c-0.1 -0.22 -0.2 -0.46 -0.28 -0.7 c-0.08 -0.22 -0.18 -0.46 -0.3 -0.68 l-0.6 -1.02 l-0.06 -0.12 c-0.06 -0.06 -0.1 -0.08 -0.18 -0.06 c-0.06 0.02 -0.12 0.04 -0.16 0.06 c-0.18 0.08 -0.38 0.12 -0.56 0.12 c-0.14 0 -0.28 -0.02 -0.4 0.04 l-0.18 0 c-0.12 0.02 -0.24 -0.08 -0.36 -0.04 s-0.22 0.02 -0.34 0 c-0.08 -0.02 -0.18 -0.02 -0.26 -0.04 c-0.28 0 -0.3 0.02 -0.3 0.28 l0 2.54 c0 0.36 -0.02 0.7 -0.08 1.06 c-0.02 0.18 -0.12 0.34 -0.18 0.5 c-0.02 0.04 -0.06 0.06 -0.1 0.08 c-0.08 0.02 -0.16 0.02 -0.22 0.08 c-0.02 0.02 -0.06 0.02 -0.1 0.02 l-0.44 0 s-0.24 -0.06 -0.28 -0.2 c-0.14 -0.26 -0.2 -0.56 -0.22 -0.84 c-0.02 -0.18 -0.02 -0.34 -0.02 -0.52 l0 -5.5 l0 0 z M2.52 10.28 l0 2.68 l0 0.3 c0 0.06 0.04 0.1 0.1 0.12 c0.14 0.02 0.28 0.04 0.44 0.02 c0.26 0.04 0.52 0.02 0.78 0.02 c0.14 0.02 0.26 0 0.4 -0.02 c0.32 -0.06 0.58 -0.2 0.82 -0.38 c0.12 -0.1 0.22 -0.2 0.28 -0.34 c0.08 -0.22 0.16 -0.42 0.2 -0.64 c0.02 -0.28 0.06 -0.54 0.12 -0.82 c0.02 -0.12 0.06 -0.24 0.08 -0.36 c0.04 -0.28 0.02 -0.56 0.02 -0.84 c0 -0.04 -0.02 -0.06 -0.02 -0.1 c-0.14 -0.52 -0.22 -1.06 -0.38 -1.58 c-0.16 -0.58 -0.08 -0.48 -0.5 -0.84 c-0.04 -0.04 -0.08 -0.06 -0.1 -0.1 c-0.12 -0.1 -0.24 -0.16 -0.4 -0.18 c-0.2 -0.04 -0.42 -0.04 -0.64 -0.06 c-0.28 0.04 -0.58 0 -0.88 0.02 l-0.16 0 c-0.12 0 -0.16 0.04 -0.16 0.18 l0 0.26 l0 2.66 z M20.577 5.960000000000001 c0 0.02 0.02 0.02 0.02 0.04 c0.08 0.34 0.1 0.7 0.1 1.08 l-0.02 0.02 c-0.06 0.32 -0.04 0.38 -0.4 0.4 c-0.12 0.02 -0.26 0.02 -0.4 0.02 l-3.14 0 c-0.12 0 -0.24 0 -0.36 0.02 c-0.1 0 -0.14 0.04 -0.14 0.12 l0 0.36 s0.02 0.24 0.02 0.36 l0 0.66 c0 0.28 0 0.54 0.04 0.82 l0 0.3 l0 2.56 c0 0.12 -0.02 0.24 0.02 0.38 c0.06 -0.02 0.1 0 0.14 -0.02 c0.46 -0.16 0.92 -0.24 1.38 -0.26 c0.32 -0.04 0.66 -0.06 0.98 -0.12 c0.16 -0.04 0.32 -0.06 0.5 -0.06 c0.18 -0.02 0.32 -0.04 0.48 -0.14 c0.04 -0.02 0.12 -0.02 0.16 0.04 c0.08 0.1 0.18 0.18 0.3 0.26 c0.18 0.12 0.28 0.44 0.14 0.72 c-0.16 0.3 -0.24 0.42 -0.66 0.5 c-0.14 0.02 -0.26 0.04 -0.4 0.06 c-0.42 0.06 -0.84 0.12 -1.26 0.16 c-0.06 0.02 -0.14 0.02 -0.2 0.02 c-0.52 0.04 -1 0.18 -1.46 0.4 c-0.08 0.04 -0.12 0.1 -0.12 0.2 l0 0.54 l0 2 c0 0.1 0 0.2 0.02 0.32 c0 0.04 0.02 0.06 0.06 0.08 l0.32 0 l3.16 0 l0.24 0 c0.36 0.02 0.32 -0.02 0.38 0.32 c0.04 0.28 0.04 0.54 0.04 0.8 l0 0.08 c-0.1 0.3 -0.06 0.36 -0.42 0.36 c-0.54 0.02 -1.08 0.02 -1.64 0 l-1.16 0 c-0.48 0 -0.98 0 -1.48 -0.02 c-0.28 -0.02 -0.54 -0.06 -0.82 -0.1 c-0.06 0 -0.1 -0.06 -0.12 -0.12 c-0.16 -0.44 -0.16 -0.44 -0.16 -0.92 c-0.02 -0.54 -0.02 -1.1 -0.02 -1.66 l0 -4.02 c0.02 -1.2 0.04 -2.42 0.04 -3.62 c0 -0.4 0.04 -0.8 0.04 -1.2 c0 -0.08 0.02 -0.18 -0.06 -0.26 c-0.04 -0.16 -0.1 -0.3 -0.14 -0.44 c-0.04 -0.32 -0.06 -0.64 0.04 -0.94 c0.04 -0.08 0.08 -0.12 0.16 -0.12 l0.26 0 l5.22 0 c0.1 0 0.22 -0.02 0.32 0.02 z M33.734 14.440000000000001 l-0.06 0.12 l0 0.22 c-0.02 0.78 -0.02 1.56 -0.04 2.34 c-0.02 0.6 -0.06 1.18 -0.1 1.78 c0 0.1 -0.04 0.2 -0.04 0.3 c-0.02 0.08 -0.06 0.12 -0.14 0.16 c-0.08 0.02 -0.16 0.04 -0.24 0.08 c-0.28 0.06 -0.54 0.08 -0.82 0 c-0.08 -0.04 -0.14 -0.1 -0.16 -0.18 c-0.02 -0.06 -0.04 -0.12 -0.04 -0.18 c-0.04 -0.34 -0.08 -0.66 -0.08 -1 c-0.04 -0.58 -0.02 -1.16 -0.04 -1.74 c-0.02 -0.48 -0.02 -0.96 -0.04 -1.42 c0 -0.06 0.02 -0.12 -0.04 -0.18 c-0.12 -0.04 -0.24 -0.02 -0.36 0 c-0.7 0.12 -1.42 0.24 -2.12 0.36 l-0.18 0.06 c-0.02 0.02 -0.06 0.06 -0.06 0.08 c-0.02 0.08 -0.02 0.14 -0.02 0.22 l-0.06 2.82 c0 0.2 -0.04 0.38 -0.06 0.56 c-0.02 0.1 0.02 0.24 -0.08 0.32 c-0.06 0.06 -0.18 0.06 -0.26 0.1 c-0.14 0.06 -0.3 0.08 -0.44 0.08 l-0.3 0 c-0.12 0 -0.22 -0.04 -0.32 -0.08 c-0.06 0 -0.1 -0.04 -0.1 -0.08 c-0.06 -0.26 -0.12 -0.52 -0.12 -0.78 c-0.02 -0.84 -0.02 -1.68 -0.02 -2.52 l0 -0.34 c-0.02 -0.1 -0.06 -0.14 -0.14 -0.14 c-0.18 0 -0.34 0.02 -0.52 0.04 c-0.34 0.02 -0.66 -0.04 -1 -0.1 c-0.04 -0.02 -0.08 -0.06 -0.1 -0.1 c-0.04 -0.18 -0.1 -0.34 -0.12 -0.5 c-0.02 -0.18 0 -0.32 0.02 -0.48 c0.02 -0.08 0.08 -0.14 0.16 -0.16 c0.14 -0.04 0.28 -0.06 0.44 -0.06 c0.38 -0.02 0.76 -0.1 1.12 -0.18 c0.04 0 0.08 -0.02 0.1 -0.04 c0.06 -0.12 0.04 -0.26 0.04 -0.38 l0 -3 l0 -1.58 c-0.02 -0.22 0.02 -0.44 0.12 -0.64 c0.18 -0.42 0.36 -0.84 0.56 -1.26 c0 -0.04 0.04 -0.08 0.08 -0.12 c0 -0.02 0.04 -0.02 0.04 -0.04 c0.2 -0.32 0.52 -0.48 0.78 -0.68 c0.14 -0.1 0.28 -0.16 0.46 -0.16 c0.1 -0.02 0.2 -0.04 0.3 -0.04 c0.06 -0.02 0.14 -0.02 0.2 -0.04 c0.18 -0.06 0.34 -0.1 0.52 -0.02 c0.04 0.02 0.1 0.02 0.14 0.02 c0.14 -0.06 0.26 -0.02 0.4 0 c0.22 0.06 0.46 0.14 0.64 0.28 c0.12 0.08 0.18 0.2 0.32 0.26 c0.12 0.04 0.18 0.16 0.26 0.24 c0.16 0.16 0.3 0.32 0.46 0.46 c0.12 0.12 0.22 0.26 0.32 0.4 c0.04 0.06 0.06 0.16 0.1 0.24 c0.06 0.18 0.12 0.34 0.12 0.54 c0 0.1 0.02 0.2 0.04 0.28 c0.04 0.18 0.08 0.34 0.12 0.52 c0.14 0.4 0.16 0.82 0.26 1.22 c0.06 0.32 0.06 0.62 0.06 0.94 l0 0.02 l0 1.38 c0 0.06 0 0.12 0.08 0.18 c0.42 -0.04 0.88 -0.02 1.32 -0.02 c0.06 0 0.12 0 0.18 0.02 c0.02 0 0.08 0.04 0.08 0.08 c0.02 0.14 0.06 0.3 0.08 0.46 c0.02 0.22 0 0.42 0 0.64 c0 0.08 -0.02 0.14 -0.04 0.22 s-0.08 0.14 -0.18 0.16 c-0.08 0.02 -0.14 0.02 -0.22 0.02 l-0.7 0 c-0.2 0 -0.38 0 -0.56 0.02 z M31.914 11.64 l0 -1.2 c0 -0.14 0 -0.28 -0.08 -0.42 c-0.04 -0.06 -0.04 -0.12 -0.06 -0.18 c-0.02 -0.2 -0.08 -0.38 -0.18 -0.56 l-0.12 -0.3 c-0.08 -0.26 -0.2 -0.5 -0.4 -0.7 c-0.12 -0.12 -0.22 -0.24 -0.34 -0.36 c-0.04 -0.04 -0.12 -0.08 -0.18 -0.1 c-0.1 -0.04 -0.22 -0.06 -0.34 -0.06 c-0.36 0.02 -0.5 0.14 -0.56 0.46 c-0.02 0.02 -0.02 0.04 -0.02 0.06 c0 0.16 -0.06 0.3 -0.1 0.44 c-0.06 0.18 -0.1 0.36 -0.12 0.54 c-0.02 0.14 -0.04 0.26 -0.1 0.4 c-0.1 0.28 -0.16 0.6 -0.16 0.9 c0 0.24 -0.02 0.48 -0.02 0.7 c0 0.1 0 0.2 0.02 0.3 c0.04 0.08 0.02 0.18 0.02 0.26 c-0.06 0.26 -0.06 0.52 -0.04 0.78 c0.02 0.24 0.04 0.48 0.04 0.74 c0 0.04 0 0.1 0.02 0.14 c0 0.02 0.02 0.04 0.04 0.04 c0.06 0.02 0.1 0.02 0.16 0 c0.3 -0.04 0.6 -0.08 0.9 -0.14 c0.42 -0.1 0.84 -0.16 1.24 -0.24 c0.1 0 0.18 -0.02 0.26 -0.04 s0.12 -0.06 0.12 -0.16 l0 -0.26 l0 -1.04 z M40.351 7.48 c-0.06 -0.26 -0.08 -0.5 -0.08 -0.74 c0 -0.12 -0.02 -0.26 0 -0.4 c0.04 -0.26 0.08 -0.32 0.36 -0.34 c0.08 -0.02 0.16 -0.02 0.22 0 c0.38 0 0.76 -0.04 1.12 -0.16 c0.04 0 0.08 -0.02 0.1 -0.02 c0.24 -0.02 0.46 -0.04 0.7 -0.06 c0.1 0 0.2 0 0.28 0.02 c0.16 0 0.3 0.02 0.44 0.04 c0.06 0.02 0.12 0.02 0.18 0.04 c0.22 0.06 0.44 0.12 0.68 0.1 c0.12 0 0.24 0.02 0.36 0.08 c0.08 0.04 0.18 0.08 0.26 0.1 c0.08 0.04 0.16 0.06 0.24 0.1 c0.24 0.14 0.46 0.3 0.7 0.46 c0.06 0.04 0.1 0.1 0.14 0.16 c0.16 0.18 0.32 0.38 0.5 0.54 c0.1 0.08 0.16 0.18 0.22 0.28 c0.16 0.22 0.3 0.46 0.38 0.74 c0.06 0.18 0.12 0.36 0.16 0.56 c0 0.1 0.04 0.18 0.08 0.28 c0.02 0.06 0.04 0.12 0.04 0.18 c0.02 0.36 0.08 0.72 0.14 1.08 l0 0.04 c-0.02 0.38 0.08 0.76 0.08 1.16 c0.02 0.36 0.04 0.72 0.1 1.08 c0.02 0.12 0.06 0.24 0.08 0.36 c0 0.08 0.02 0.16 0.02 0.26 c0.02 0.24 0.04 0.48 0.04 0.72 c0 0.26 -0.02 0.52 -0.02 0.76 c0 0.26 -0.04 0.52 -0.08 0.76 c-0.04 0.3 -0.04 0.58 -0.12 0.88 l0 0.18 c0 0.12 -0.02 0.24 -0.08 0.34 c-0.04 0.12 -0.08 0.24 -0.1 0.36 c0 0.06 -0.02 0.14 -0.06 0.2 c-0.06 0.14 -0.08 0.28 -0.08 0.44 c0 0.1 -0.04 0.18 -0.1 0.26 c-0.08 0.1 -0.14 0.22 -0.18 0.36 c-0.04 0.12 -0.14 0.2 -0.22 0.28 c0 0.02 -0.02 0.04 -0.06 0.06 c-0.14 0.04 -0.26 0.14 -0.38 0.26 c-0.02 0.02 -0.08 0.04 -0.14 0.04 c-0.12 0 -0.22 0.02 -0.34 0.06 c-0.32 0.04 -0.64 0.14 -0.98 0.14 c-0.3 0.02 -0.6 0.02 -0.9 0 c-0.54 -0.02 -1.06 0 -1.58 0 c-0.06 0 -0.12 0 -0.18 0.02 l-0.1 0 c-0.28 0 -0.54 -0.02 -0.8 -0.04 c-0.04 -0.02 -0.1 -0.04 -0.14 -0.06 c-0.08 -0.12 -0.22 -0.14 -0.34 -0.2 c-0.04 -0.02 -0.08 -0.06 -0.08 -0.12 c0.02 -0.24 0 -0.5 0.1 -0.74 c0.02 -0.08 0.06 -0.16 0.08 -0.24 c0.06 -0.14 0.16 -0.18 0.3 -0.2 c0.1 -0.02 0.22 0 0.32 0.04 c0.04 0 0.1 -0.04 0.1 -0.08 c0.02 -0.12 0.02 -0.22 0.02 -0.34 l0 -3.74 l0 -4.28 l0 -1.74 c0 -0.08 0 -0.16 -0.02 -0.22 c0 -0.04 -0.04 -0.06 -0.08 -0.08 c-0.16 -0.02 -0.32 -0.02 -0.46 0.02 c-0.18 0.06 -0.36 0.06 -0.54 0 c-0.08 -0.04 -0.2 -0.04 -0.3 -0.04 z M43.291 7.4 c0 0.04 -0.02 0.06 -0.02 0.1 l0 0.34 l0 9.68 l0 0.26 l0 0.12 c0.02 0.04 0.06 0.08 0.1 0.08 l0.22 0 c0.32 0.02 0.62 0 0.92 0.02 c0.24 0 0.46 -0.04 0.68 -0.08 c0.14 -0.02 0.28 -0.08 0.42 -0.12 c0.08 -0.04 0.12 -0.08 0.12 -0.16 c0.02 -0.16 0.06 -0.3 0.12 -0.42 c0.06 -0.14 0.08 -0.28 0.12 -0.42 c0.02 -0.06 0.04 -0.1 0.06 -0.14 c0.06 -0.1 0.08 -0.2 0.1 -0.3 c0.04 -0.24 0.06 -0.46 0.1 -0.7 c0.1 -0.6 0.1 -1.2 0.1 -1.8 c0 -0.2 -0.02 -0.4 -0.08 -0.58 c-0.04 -0.08 -0.04 -0.16 -0.06 -0.24 c-0.02 -0.2 -0.02 -0.4 -0.06 -0.58 c-0.02 -0.08 -0.02 -0.18 -0.02 -0.26 c0.02 -0.3 0 -0.58 -0.04 -0.88 c-0.02 -0.12 -0.02 -0.26 -0.04 -0.4 c0 -0.06 0 -0.14 -0.02 -0.2 c-0.04 -0.34 -0.1 -0.68 -0.16 -1.02 c-0.04 -0.32 -0.16 -0.6 -0.26 -0.9 c-0.02 -0.1 -0.08 -0.18 -0.14 -0.26 c-0.14 -0.14 -0.28 -0.3 -0.4 -0.46 c-0.12 -0.14 -0.24 -0.24 -0.4 -0.32 c-0.2 -0.14 -0.4 -0.2 -0.64 -0.26 c-0.1 -0.02 -0.2 -0.04 -0.32 -0.06 s-0.26 -0.06 -0.4 -0.04 z M57.088 17.14 c0 -0.72 -0.02 -1.44 0 -2.14 c0 -0.2 -0.02 -0.4 -0.1 -0.58 c-0.02 -0.06 -0.04 -0.14 -0.04 -0.22 c-0.04 -0.34 -0.14 -0.64 -0.22 -0.96 c-0.02 -0.08 -0.06 -0.16 -0.08 -0.22 c-0.1 -0.18 -0.18 -0.36 -0.26 -0.52 c-0.22 -0.44 -0.38 -0.88 -0.52 -1.34 c-0.1 -0.38 -0.24 -0.74 -0.42 -1.08 c-0.2 -0.42 -0.36 -0.88 -0.48 -1.34 c-0.04 -0.2 -0.1 -0.38 -0.18 -0.56 c-0.1 -0.24 -0.18 -0.48 -0.26 -0.72 c-0.04 -0.08 -0.06 -0.16 -0.14 -0.2 s-0.12 -0.1 -0.12 -0.18 c-0.02 -0.06 -0.02 -0.12 -0.02 -0.18 c0 -0.18 -0.02 -0.34 -0.1 -0.5 c-0.02 -0.06 -0.02 -0.14 0.02 -0.2 c0.04 -0.08 0.06 -0.16 0.06 -0.26 c0 -0.06 0 -0.14 0.02 -0.2 c0 -0.1 0.04 -0.14 0.14 -0.16 c0.06 -0.02 0.12 -0.02 0.2 -0.06 c0.08 -0.02 0.16 -0.04 0.26 -0.04 l0.54 0 c0.02 0 0.02 -0.02 0.04 -0.02 c0.32 0.04 0.36 0.08 0.4 0.36 c0.02 0.12 0.02 0.24 0.02 0.38 c0 0.1 0.02 0.2 0.06 0.3 c0.1 0.26 0.18 0.56 0.32 0.82 c0.04 0.08 0.06 0.16 0.08 0.26 c0.06 0.14 0.1 0.3 0.16 0.44 c0.06 0.16 0.12 0.3 0.14 0.46 c0.02 0.26 0.12 0.5 0.24 0.74 c0.24 0.42 0.4 0.88 0.56 1.36 c0.02 0.1 0.04 0.2 0.08 0.3 c0.06 0.28 0.16 0.54 0.28 0.78 c0.02 0.04 0.02 0.04 0.04 0.06 c0.02 0.04 0.06 0.02 0.08 0 c0.14 -0.2 0.22 -0.44 0.28 -0.68 c0.04 -0.08 0.04 -0.16 0.06 -0.24 c0.06 -0.2 0.1 -0.4 0.2 -0.58 c0.02 -0.04 0.02 -0.08 0.04 -0.14 c0.08 -0.28 0.2 -0.54 0.34 -0.8 c0.16 -0.28 0.26 -0.56 0.3 -0.86 c0.02 -0.14 0.06 -0.28 0.12 -0.4 l0.06 -0.12 c0.1 -0.4 0.28 -0.76 0.42 -1.16 c0.08 -0.22 0.16 -0.44 0.14 -0.68 c0 -0.1 0.02 -0.22 0.04 -0.32 c0.02 -0.18 0.1 -0.24 0.28 -0.26 l0.14 0 l0.48 0 c0.12 0 0.24 0.02 0.36 0.06 c0.3 0.08 0.3 0.04 0.32 0.38 c0 0.06 0 0.14 0.02 0.2 c0.12 0.12 0.06 0.24 0.02 0.38 c-0.04 0.1 -0.06 0.2 -0.06 0.3 l0 0.2 c0 0.12 -0.04 0.22 -0.16 0.28 c-0.06 0.04 -0.08 0.08 -0.1 0.14 c-0.08 0.26 -0.18 0.52 -0.28 0.76 c-0.08 0.2 -0.14 0.38 -0.2 0.58 c-0.1 0.48 -0.28 0.92 -0.48 1.34 c-0.16 0.34 -0.3 0.68 -0.38 1.02 c-0.18 0.58 -0.4 1.14 -0.68 1.68 c-0.12 0.22 -0.22 0.46 -0.28 0.72 c-0.06 0.3 -0.1 0.6 -0.18 0.9 c-0.02 0.12 -0.02 0.24 -0.02 0.34 l0 1.06 l0 3.62 c0 0.32 0.02 0.3 -0.3 0.36 c-0.28 0.04 -0.58 0.04 -0.86 0.04 c-0.1 0 -0.2 -0.04 -0.3 -0.06 c-0.06 -0.02 -0.12 -0.08 -0.12 -0.14 c-0.02 -0.08 -0.02 -0.16 -0.02 -0.24 c0 -0.66 0 -1.3 -0.02 -1.96 l0 -0.3 l0.02 0 z M80.442 19.8 c-0.7 -0.02 -1.32 -0.02 -1.94 -0.02 l-1.14 -0.06 c-0.06 0 -0.12 -0.02 -0.16 -0.02 c-0.14 -0.04 -0.24 -0.08 -0.26 -0.22 c0 -0.06 -0.02 -0.12 -0.06 -0.18 c-0.08 -0.1 -0.1 -0.24 -0.08 -0.36 c0 -0.1 0 -0.2 -0.02 -0.3 c0 -0.02 0.02 -0.06 0.04 -0.08 c0.06 -0.06 0.08 -0.16 0.1 -0.22 c0.04 -0.1 0.06 -0.18 0.16 -0.24 c0.04 -0.02 0.06 -0.08 0.1 -0.14 c0.1 -0.2 0.22 -0.38 0.38 -0.56 c0.04 -0.02 0.08 -0.06 0.1 -0.1 c0.1 -0.16 0.26 -0.3 0.42 -0.42 c0.1 -0.06 0.16 -0.14 0.22 -0.24 c0.1 -0.16 0.2 -0.32 0.26 -0.5 c0.16 -0.36 0.36 -0.7 0.58 -1.02 c0.22 -0.3 0.46 -0.6 0.68 -0.92 c0.16 -0.24 0.32 -0.5 0.48 -0.76 c0.18 -0.28 0.34 -0.56 0.52 -0.84 c0.02 -0.04 0.04 -0.08 0.06 -0.14 c0.18 -0.38 0.36 -0.76 0.5 -1.18 c0.12 -0.3 0.16 -0.64 0.12 -0.98 c-0.04 -0.36 -0.06 -0.72 -0.08 -1.1 c-0.02 -0.16 -0.04 -0.32 -0.08 -0.48 c-0.02 -0.2 -0.08 -0.38 -0.14 -0.56 c-0.04 -0.16 -0.12 -0.34 -0.22 -0.48 c-0.1 -0.16 -0.26 -0.24 -0.46 -0.2 c-0.06 0 -0.14 0.04 -0.2 0.02 c-0.26 -0.02 -0.48 0.12 -0.72 0.22 c-0.04 0.02 -0.08 0.08 -0.12 0.12 c-0.1 0.1 -0.16 0.24 -0.22 0.36 c-0.06 0.16 -0.14 0.34 -0.2 0.5 c-0.06 0.22 -0.14 0.42 -0.22 0.64 c-0.06 0.12 -0.1 0.26 -0.1 0.42 c0 0.28 -0.08 0.52 -0.2 0.78 c-0.04 0.1 -0.12 0.16 -0.22 0.2 c-0.22 0.08 -0.42 0.06 -0.64 0 c-0.06 0 -0.1 -0.04 -0.14 -0.1 c-0.08 -0.16 -0.16 -0.34 -0.14 -0.54 c0.04 -0.18 0 -0.36 -0.04 -0.52 c-0.02 -0.12 -0.02 -0.22 0 -0.32 c0.12 -0.28 0.14 -0.58 0.26 -0.86 c0.04 -0.08 0.06 -0.16 0.08 -0.24 c0.02 -0.22 0.1 -0.4 0.2 -0.6 s0.2 -0.38 0.26 -0.58 c0.04 -0.12 0.12 -0.2 0.22 -0.28 c0.1 -0.06 0.18 -0.1 0.26 -0.18 c0.16 -0.14 0.3 -0.24 0.5 -0.28 c0.04 0 0.08 -0.02 0.12 -0.06 c0.12 -0.06 0.24 -0.1 0.38 -0.12 c0.08 0 0.16 -0.02 0.24 -0.04 c0.12 -0.04 0.24 -0.08 0.38 -0.06 c0.14 0 0.24 -0.08 0.38 -0.1 c0.1 -0.02 0.18 -0.02 0.28 0.02 c0.16 0.08 0.32 0.14 0.5 0.14 c0.08 0 0.14 0.04 0.2 0.1 l0.26 0.26 c0.12 0.1 0.24 0.18 0.34 0.28 c0.08 0.12 0.12 0.26 0.18 0.38 c0.02 0.06 0.06 0.12 0.08 0.16 c0.12 0.14 0.16 0.32 0.24 0.48 c0 0.02 0.02 0.04 0.02 0.08 c0 0.16 0.04 0.32 0.14 0.46 c0.04 0.1 0.04 0.2 0.04 0.32 c0.02 0.16 0.02 0.3 0.08 0.44 c0.04 0.1 0.04 0.2 0 0.28 c-0.06 0.12 -0.04 0.24 -0.02 0.36 c0.02 0.08 0.04 0.18 0.04 0.28 c0 0.16 0.02 0.34 0.06 0.5 c0.02 0.12 0.02 0.26 0.04 0.38 c0 0.12 -0.02 0.24 -0.06 0.36 c-0.02 0.08 -0.04 0.16 -0.04 0.24 c0 0.18 -0.08 0.34 -0.16 0.5 c-0.12 0.2 -0.22 0.4 -0.26 0.62 c-0.04 0.14 -0.08 0.26 -0.16 0.36 c-0.12 0.16 -0.22 0.34 -0.28 0.54 c-0.04 0.1 -0.1 0.2 -0.2 0.3 s-0.18 0.22 -0.24 0.34 c-0.28 0.52 -0.62 1.02 -0.98 1.48 c-0.28 0.36 -0.52 0.74 -0.7 1.16 c-0.1 0.2 -0.2 0.4 -0.28 0.62 c-0.08 0.16 -0.18 0.28 -0.28 0.4 s-0.18 0.22 -0.28 0.34 c-0.02 0.02 -0.04 0.06 0 0.1 c0.02 0.02 0.06 0.02 0.08 0.04 l0.32 0 l3.5 0 l0.28 0 c0.2 0 0.22 0.04 0.26 0.22 c0.04 0.3 0.06 0.58 0.06 0.88 c0 0.14 -0.02 0.26 -0.06 0.38 c-0.02 0.06 -0.08 0.1 -0.14 0.12 c-0.1 0 -0.22 0.02 -0.32 0.02 l-1.42 0 l-1.32 0 z M100.096 7.279999999999999 c-0.54 -0.1 -1.1 -0.1 -1.66 -0.08 c-0.22 0.02 -0.28 -0.02 -0.38 -0.22 c-0.1 -0.22 -0.12 -0.46 -0.12 -0.72 c0 -0.28 0.04 -0.34 0.36 -0.46 c0.18 -0.08 0.36 -0.08 0.56 -0.1 c0.42 -0.02 0.84 0 1.26 0.02 l0.62 0 c0.28 -0.02 0.58 -0.02 0.86 -0.02 c0.04 0 0.1 0 0.14 0.02 c0.14 0.06 0.26 0.06 0.4 0.06 l1.08 0 c0.08 0 0.18 -0.02 0.26 0.02 c0 0.02 0.02 0.04 0.04 0.06 c0.02 0.22 0.06 0.42 0.08 0.64 c0 0.1 -0.02 0.2 0 0.28 c0 0.14 -0.04 0.28 -0.08 0.4 c-0.02 0.08 -0.08 0.14 -0.16 0.14 c-0.2 0.02 -0.42 0.02 -0.62 0.02 l-0.82 0 c-0.12 0 -0.18 0.06 -0.18 0.18 l0 0.3 c0 0.2 0.02 0.42 0.02 0.62 l0 3.32 c0 0.78 0.02 1.58 0 2.36 l0 3.38 c0 0.12 0 0.22 0.02 0.34 c0 0.02 0.02 0.04 0.04 0.04 c0.06 0.02 0.12 0.04 0.18 0.04 c0.28 0 0.56 0.08 0.84 0.02 l0.78 0.06 c0.04 0.02 0.08 0.02 0.12 0.02 l0.18 0.12 c0.04 0.04 0.06 0.1 0.08 0.16 c0.08 0.22 0.06 0.44 0.02 0.66 c0 0.02 -0.02 0.04 -0.02 0.06 c-0.1 0.38 -0.14 0.38 -0.48 0.34 c-0.02 0 -0.06 -0.02 -0.08 -0.02 c-0.32 0 -0.64 -0.02 -0.96 -0.04 c-0.22 0 -0.42 0.02 -0.62 0.04 c-0.12 0.02 -0.24 0.02 -0.32 0.12 c-0.2 0.06 -0.4 0.12 -0.6 0.14 c-0.18 0.02 -0.34 -0.06 -0.5 -0.14 c-0.04 -0.02 -0.08 -0.06 -0.12 -0.08 c-0.06 -0.02 -0.12 -0.04 -0.18 -0.04 c-0.1 0 -0.2 0.02 -0.3 0 c-0.1 0 -0.22 0 -0.32 0.04 c-0.08 0.04 -0.16 0.06 -0.26 0.06 c-0.12 0 -0.26 0.02 -0.4 0.06 c-0.24 0.06 -0.48 0.02 -0.72 -0.06 c-0.08 -0.06 -0.16 -0.14 -0.22 -0.2 c-0.02 -0.02 -0.02 -0.04 -0.02 -0.06 c0 -0.1 0.02 -0.18 0.02 -0.26 c0.02 -0.12 0.04 -0.24 0.02 -0.38 c-0.02 -0.1 0 -0.22 0.04 -0.32 c0.02 -0.12 0.12 -0.22 0.26 -0.24 c0.24 -0.02 0.5 -0.04 0.74 -0.06 l0.36 -0.06 s0.24 -0.04 0.36 0 c0.1 0.02 0.2 0 0.3 -0.02 c0.16 -0.02 0.18 -0.04 0.18 -0.22 l0 -0.88 c-0.02 -0.46 -0.02 -0.9 -0.02 -1.34 l0 -3.34 c0.02 -0.98 0.02 -1.96 0.04 -2.94 c0 -0.48 0 -0.96 0.04 -1.44 l0 -0.12 c0.02 -0.12 -0.04 -0.2 -0.14 -0.28 z M110.073 5.74 c0.3 -0.14 0.6 -0.2 0.92 -0.2 c0.08 0 0.18 0 0.28 0.02 c0.08 0.02 0.12 0.06 0.14 0.14 c0.04 0.08 0.06 0.14 0.08 0.22 c0.04 0.18 0.06 0.36 0.1 0.54 c0.02 0.06 0.04 0.12 0.06 0.2 c0.04 0.06 0.08 0.12 0.1 0.18 c0.08 0.34 0.18 0.66 0.26 1 c0.06 0.2 0.12 0.4 0.22 0.6 c0.14 0.28 0.28 0.56 0.42 0.86 c0.12 0.26 0.26 0.52 0.38 0.8 c0.16 0.32 0.3 0.66 0.46 1 c0.06 0.14 0.16 0.28 0.24 0.44 c0.26 0.46 0.46 0.94 0.6 1.46 c0.02 0.1 0.06 0.2 0.1 0.3 c0.22 0.52 0.44 1.02 0.66 1.52 c0.08 0.16 0.16 0.3 0.26 0.44 c0.12 0.16 0.24 0.34 0.34 0.52 c0.06 0.12 0.14 0.2 0.2 0.3 c0.02 0.02 0.04 0.02 0.06 0.04 c0.02 0 0.06 -0.04 0.06 -0.08 l0 -0.36 l0 -9.86 l0 -0.36 c0 -0.04 0.02 -0.08 0.04 -0.12 c0.38 -0.1 0.76 -0.1 1.14 -0.1 c0.04 0 0.08 0.02 0.14 0.02 c0.18 0.06 0.24 0.06 0.26 0.3 c0.04 0.44 0.02 0.88 0.02 1.32 l0 1.42 c0.02 0.14 0 0.28 0 0.42 c0 0.28 0.02 0.56 0 0.86 c0 0.28 0.02 0.58 0 0.88 l0 0.84 l0 0.9 l0 1.1 c0 0.4 -0.02 0.82 -0.02 1.22 c0 0.18 0 0.34 -0.02 0.5 c0 0.72 0 1.42 -0.02 2.14 c0 0.26 -0.02 0.52 -0.04 0.78 l0 0.14 c-0.02 0.26 0.06 0.48 0.3 0.62 c0.12 0.06 0.16 0.14 0.16 0.26 c0.02 0.06 0.02 0.14 0.02 0.2 c0 0.08 -0.04 0.12 -0.08 0.16 c-0.14 0.1 -0.24 0.26 -0.34 0.4 c-0.04 0.08 -0.08 0.14 -0.14 0.2 c-0.12 0.1 -0.24 0.16 -0.38 0.14 c-0.06 -0.02 -0.1 0 -0.14 0 c-0.14 0 -0.24 -0.06 -0.32 -0.16 c-0.1 -0.12 -0.22 -0.24 -0.32 -0.36 c-0.08 -0.08 -0.14 -0.18 -0.18 -0.26 c-0.14 -0.3 -0.32 -0.6 -0.5 -0.86 c-0.1 -0.14 -0.2 -0.28 -0.3 -0.4 c-0.14 -0.12 -0.26 -0.28 -0.36 -0.44 c-0.08 -0.1 -0.16 -0.2 -0.22 -0.32 c-0.06 -0.08 -0.12 -0.16 -0.18 -0.26 c-0.1 -0.22 -0.22 -0.42 -0.36 -0.6 s-0.26 -0.38 -0.36 -0.58 c-0.16 -0.28 -0.3 -0.56 -0.42 -0.86 c-0.06 -0.22 -0.16 -0.42 -0.26 -0.62 c-0.18 -0.38 -0.34 -0.78 -0.46 -1.18 c-0.06 -0.22 -0.16 -0.42 -0.26 -0.62 c-0.24 -0.44 -0.46 -0.86 -0.64 -1.32 c-0.02 -0.06 -0.06 -0.12 -0.1 -0.18 l-0.02 0 l-0.04 0 l0 0.28 l0 3.74 c-0.02 1 -0.02 2.02 -0.04 3.04 c0 0.38 -0.02 0.76 -0.08 1.14 c-0.02 0.08 -0.02 0.16 -0.02 0.24 c-0.02 0.1 -0.08 0.18 -0.18 0.22 c-0.26 0.1 -0.52 0.12 -0.8 0.08 c-0.08 0 -0.18 -0.04 -0.26 -0.06 c-0.06 -0.02 -0.08 -0.06 -0.08 -0.12 c-0.02 -0.06 -0.02 -0.12 -0.04 -0.18 c0 -0.08 0 -0.16 -0.02 -0.24 c-0.04 -0.32 -0.06 -0.64 -0.08 -0.96 l0 -0.48 c-0.02 -0.2 -0.02 -0.4 -0.02 -0.62 l0 -10.14 c0 -0.22 0.02 -0.44 -0.04 -0.66 c-0.02 -0.04 0 -0.1 0.02 -0.14 c0.06 -0.14 0.08 -0.28 0.1 -0.44 z M124.69 5.74 c0.3 -0.14 0.6 -0.2 0.92 -0.2 c0.08 0 0.18 0 0.28 0.02 c0.08 0.02 0.12 0.06 0.14 0.14 c0.04 0.08 0.06 0.14 0.08 0.22 c0.04 0.18 0.06 0.36 0.1 0.54 c0.02 0.06 0.04 0.12 0.06 0.2 c0.04 0.06 0.08 0.12 0.1 0.18 c0.08 0.34 0.18 0.66 0.26 1 c0.06 0.2 0.12 0.4 0.22 0.6 c0.14 0.28 0.28 0.56 0.42 0.86 c0.12 0.26 0.26 0.52 0.38 0.8 c0.16 0.32 0.3 0.66 0.46 1 c0.06 0.14 0.16 0.28 0.24 0.44 c0.26 0.46 0.46 0.94 0.6 1.46 c0.02 0.1 0.06 0.2 0.1 0.3 c0.22 0.52 0.44 1.02 0.66 1.52 c0.08 0.16 0.16 0.3 0.26 0.44 c0.12 0.16 0.24 0.34 0.34 0.52 c0.06 0.12 0.14 0.2 0.2 0.3 c0.02 0.02 0.04 0.02 0.06 0.04 c0.02 0 0.06 -0.04 0.06 -0.08 l0 -0.36 l0 -9.86 l0 -0.36 c0 -0.04 0.02 -0.08 0.04 -0.12 c0.38 -0.1 0.76 -0.1 1.14 -0.1 c0.04 0 0.08 0.02 0.14 0.02 c0.18 0.06 0.24 0.06 0.26 0.3 c0.04 0.44 0.02 0.88 0.02 1.32 l0 1.42 c0.02 0.14 0 0.28 0 0.42 c0 0.28 0.02 0.56 0 0.86 c0 0.28 0.02 0.58 0 0.88 l0 0.84 l0 0.9 l0 1.1 c0 0.4 -0.02 0.82 -0.02 1.22 c0 0.18 0 0.34 -0.02 0.5 c0 0.72 0 1.42 -0.02 2.14 c0 0.26 -0.02 0.52 -0.04 0.78 l0 0.14 c-0.02 0.26 0.06 0.48 0.3 0.62 c0.12 0.06 0.16 0.14 0.16 0.26 c0.02 0.06 0.02 0.14 0.02 0.2 c0 0.08 -0.04 0.12 -0.08 0.16 c-0.14 0.1 -0.24 0.26 -0.34 0.4 c-0.04 0.08 -0.08 0.14 -0.14 0.2 c-0.12 0.1 -0.24 0.16 -0.38 0.14 c-0.06 -0.02 -0.1 0 -0.14 0 c-0.14 0 -0.24 -0.06 -0.32 -0.16 c-0.1 -0.12 -0.22 -0.24 -0.32 -0.36 c-0.08 -0.08 -0.14 -0.18 -0.18 -0.26 c-0.14 -0.3 -0.32 -0.6 -0.5 -0.86 c-0.1 -0.14 -0.2 -0.28 -0.3 -0.4 c-0.14 -0.12 -0.26 -0.28 -0.36 -0.44 c-0.08 -0.1 -0.16 -0.2 -0.22 -0.32 c-0.06 -0.08 -0.12 -0.16 -0.18 -0.26 c-0.1 -0.22 -0.22 -0.42 -0.36 -0.6 s-0.26 -0.38 -0.36 -0.58 c-0.16 -0.28 -0.3 -0.56 -0.42 -0.86 c-0.06 -0.22 -0.16 -0.42 -0.26 -0.62 c-0.18 -0.38 -0.34 -0.78 -0.46 -1.18 c-0.06 -0.22 -0.16 -0.42 -0.26 -0.62 c-0.24 -0.44 -0.46 -0.86 -0.64 -1.32 c-0.02 -0.06 -0.06 -0.12 -0.1 -0.18 l-0.02 0 l-0.04 0 l0 0.28 l0 3.74 c-0.02 1 -0.02 2.02 -0.04 3.04 c0 0.38 -0.02 0.76 -0.08 1.14 c-0.02 0.08 -0.02 0.16 -0.02 0.24 c-0.02 0.1 -0.08 0.18 -0.18 0.22 c-0.26 0.1 -0.52 0.12 -0.8 0.08 c-0.08 0 -0.18 -0.04 -0.26 -0.06 c-0.06 -0.02 -0.08 -0.06 -0.08 -0.12 c-0.02 -0.06 -0.02 -0.12 -0.04 -0.18 c0 -0.08 0 -0.16 -0.02 -0.24 c-0.04 -0.32 -0.06 -0.64 -0.08 -0.96 l0 -0.48 c-0.02 -0.2 -0.02 -0.4 -0.02 -0.62 l0 -10.14 c0 -0.22 0.02 -0.44 -0.04 -0.66 c-0.02 -0.04 0 -0.1 0.02 -0.14 c0.06 -0.14 0.08 -0.28 0.1 -0.44 z M141.547 19.86 l-0.18 -0.06 s-0.12 -0.02 -0.16 0 s-0.1 0.02 -0.14 0.02 c-0.3 -0.04 -0.66 -0.12 -0.9 -0.4 c-0.02 0 -0.04 -0.02 -0.06 -0.04 c-0.32 -0.2 -0.52 -0.5 -0.8 -0.76 c-0.1 -0.08 -0.16 -0.18 -0.22 -0.28 c-0.04 -0.08 -0.08 -0.18 -0.1 -0.26 c-0.06 -0.14 -0.1 -0.28 -0.1 -0.42 c0.02 -0.1 -0.02 -0.2 -0.04 -0.3 c-0.04 -0.14 -0.06 -0.28 -0.1 -0.42 c-0.1 -0.34 -0.14 -0.68 -0.22 -1.02 c-0.04 -0.18 -0.04 -0.36 -0.04 -0.54 c0 -0.62 -0.02 -1.24 -0.02 -1.86 s0.02 -1.24 0.02 -1.88 l0 -0.9 c0.02 -0.14 0 -0.28 -0.08 -0.4 c-0.02 -0.04 -0.02 -0.1 -0.02 -0.16 c0.02 -0.04 0.02 -0.06 0.02 -0.1 c0.04 -0.22 0.04 -0.44 -0.02 -0.66 c-0.02 -0.1 -0.02 -0.2 0 -0.3 c0.04 -0.18 0.06 -0.34 0 -0.5 l0 -0.14 c0.02 -0.06 0.02 -0.1 0.04 -0.16 c0.06 -0.14 0.08 -0.3 0.08 -0.46 c0 -0.12 0.02 -0.24 0.08 -0.36 c0.1 -0.24 0.26 -0.44 0.36 -0.68 c0.02 -0.04 0.04 -0.08 0.08 -0.1 c0.2 -0.22 0.4 -0.44 0.64 -0.6 c0.16 -0.1 0.3 -0.22 0.46 -0.34 c0.08 -0.08 0.18 -0.12 0.3 -0.14 c0.16 -0.04 0.3 -0.06 0.46 -0.1 c0.08 -0.04 0.16 -0.04 0.22 -0.04 c0.08 -0.02 0.16 -0.02 0.24 -0.04 c0.06 -0.02 0.14 -0.02 0.2 0.02 c0.02 0.02 0.06 0.02 0.08 0.04 c0.1 0.06 0.22 0.08 0.34 0.08 l0.2 0 s0.14 0.02 0.2 0.08 c0.02 0.02 0.04 0.04 0.06 0.04 c0.06 0.08 0.14 0.12 0.22 0.14 c0.22 0.08 0.36 0.22 0.5 0.4 c0.08 0.12 0.18 0.26 0.3 0.36 c0.04 0.04 0.08 0.1 0.1 0.16 c0.06 0.14 0.12 0.26 0.16 0.42 c0.02 0.1 0.08 0.2 0.12 0.3 c0.06 0.12 0.1 0.26 0.12 0.38 c0 0.18 0.04 0.36 0.08 0.54 c0.04 0.16 0.06 0.34 0.06 0.5 c-0.02 0.16 0 0.32 0.06 0.46 c0.02 0.06 0.02 0.12 0.02 0.16 c0.02 0.1 0.02 0.2 -0.04 0.26 c-0.04 0.06 -0.04 0.14 -0.04 0.2 l0 0.36 l0 6.62 c0.02 0.3 -0.06 0.6 -0.18 0.88 l-0.42 0.96 c-0.04 0.06 -0.08 0.1 -0.12 0.16 c-0.18 0.26 -0.46 0.42 -0.7 0.6 c-0.1 0.08 -0.2 0.12 -0.32 0.14 c-0.06 0 -0.14 0.02 -0.2 0.02 c-0.2 0 -0.4 0.06 -0.6 0.12 z M140.047 13.26 l0 2.24 l0 0.34 c0 0.06 0 0.12 0.02 0.16 c0.08 0.14 0.1 0.28 0.12 0.42 c0.02 0.06 0.04 0.14 0.06 0.2 c0.08 0.2 0.16 0.38 0.24 0.58 c0.04 0.08 0.08 0.18 0.12 0.24 c0.14 0.16 0.28 0.32 0.4 0.46 c0.16 0.18 0.38 0.24 0.62 0.22 c0.18 -0.02 0.32 -0.08 0.4 -0.26 c0.02 -0.04 0.02 -0.08 0.04 -0.12 c0 -0.18 0.06 -0.36 0.12 -0.54 c0.04 -0.14 0.08 -0.28 0.08 -0.42 c0 -0.1 0.04 -0.2 0.06 -0.3 c0.12 -0.28 0.16 -0.58 0.18 -0.88 c0 -0.22 0 -0.42 0.02 -0.64 c0 -0.08 0 -0.16 -0.04 -0.24 c-0.02 -0.04 -0.02 -0.1 0 -0.16 c0.06 -0.26 0.04 -0.52 0.02 -0.78 c-0.04 -0.38 -0.02 -0.78 -0.02 -1.16 c0 -0.74 0.02 -1.46 0.02 -2.2 c0.02 -0.12 0.02 -0.22 -0.02 -0.34 c-0.02 -0.04 -0.02 -0.1 -0.02 -0.16 c-0.02 -0.28 -0.06 -0.56 -0.12 -0.84 s-0.12 -0.56 -0.12 -0.86 c0 -0.14 -0.06 -0.28 -0.12 -0.42 c-0.04 -0.08 -0.1 -0.14 -0.14 -0.22 c-0.04 -0.1 -0.12 -0.16 -0.22 -0.2 c-0.04 -0.04 -0.1 -0.06 -0.14 -0.08 c-0.3 -0.1 -0.56 -0.08 -0.8 0.12 c-0.14 0.12 -0.26 0.24 -0.38 0.38 c-0.08 0.06 -0.12 0.16 -0.14 0.26 c-0.04 0.2 -0.08 0.42 -0.12 0.62 l0 0.1 c0 0.1 -0.02 0.2 0 0.3 c0 0.12 -0.08 0.22 -0.1 0.34 l0 0.02 c-0.02 0.26 -0.06 0.52 -0.08 0.78 c-0.02 0.18 -0.02 0.38 0.02 0.56 c0.02 0.06 0.02 0.12 0.02 0.18 c0 0.78 -0.02 1.58 0.02 2.3 z M153.88400000000001 13.82 c0.04 -0.26 0.06 -0.52 0.06 -0.76 l0 -0.5 c0 -0.16 0 -0.3 0.04 -0.46 c0.02 -0.08 0.02 -0.16 0.04 -0.24 c0.02 -0.22 0.08 -0.46 0.16 -0.68 c0.16 -0.44 0.22 -0.92 0.18 -1.4 c0 -0.08 0 -0.16 0.02 -0.24 c0.02 -0.22 0.04 -0.46 0.08 -0.68 c0 -0.16 0.06 -0.28 0.08 -0.42 c0.1 -0.44 0.16 -0.88 0.14 -1.34 c0 -0.12 0 -0.26 0.04 -0.38 c0.04 -0.18 0.06 -0.36 0.08 -0.54 c0.04 -0.22 0.08 -0.44 0.12 -0.64 c0 -0.04 0.02 -0.08 0.04 -0.12 c0.04 0 0.1 -0.02 0.16 -0.02 c0.3 0.02 0.6 0.02 0.9 0.02 c0.14 0 0.26 0.04 0.38 0.08 c0.06 0.02 0.1 0.06 0.12 0.12 c0.06 0.06 0.08 0.16 0.08 0.24 c0 0.18 -0.02 0.34 -0.06 0.5 c-0.06 0.36 -0.1 0.7 -0.14 1.06 c-0.04 0.58 -0.1 1.16 -0.24 1.74 c-0.04 0.18 -0.04 0.36 -0.06 0.54 l0 0.52 c0 0.14 -0.02 0.28 -0.02 0.4 c-0.04 0.24 -0.08 0.48 -0.14 0.72 c0 0.08 -0.02 0.14 -0.04 0.2 c-0.18 0.42 -0.24 0.86 -0.24 1.3 c0 0.3 0 0.58 -0.02 0.88 c-0.04 0.46 -0.1 0.92 -0.24 1.38 c-0.08 0.28 -0.14 0.58 -0.18 0.88 c-0.02 0.28 -0.08 0.58 -0.08 0.88 c0 0.08 0 0.14 -0.02 0.2 c-0.08 0.3 -0.1 0.62 -0.24 0.9 c-0.04 0.26 -0.16 0.5 -0.28 0.72 c-0.12 0.2 -0.24 0.42 -0.4 0.62 c-0.02 0.02 -0.06 0.06 -0.06 0.1 c-0.02 0.14 -0.1 0.2 -0.22 0.22 c-0.08 0.04 -0.14 0.08 -0.2 0.12 c-0.06 0.06 -0.12 0.1 -0.2 0.14 c-0.02 0 -0.06 0.02 -0.08 0.02 c-0.16 -0.06 -0.32 -0.04 -0.46 -0.12 c-0.08 -0.04 -0.16 -0.06 -0.24 -0.08 c-0.12 -0.02 -0.24 -0.06 -0.28 -0.2 c-0.02 -0.02 -0.04 -0.04 -0.04 -0.06 c-0.22 -0.14 -0.32 -0.4 -0.46 -0.6 c-0.04 -0.08 -0.04 -0.16 -0.06 -0.22 c-0.04 -0.12 -0.12 -0.2 -0.14 -0.32 c-0.02 -0.1 -0.02 -0.18 -0.06 -0.28 c-0.08 -0.2 -0.14 -0.38 -0.2 -0.56 c-0.06 -0.12 -0.1 -0.24 -0.14 -0.36 l-0.42 -1.5 c-0.12 -0.4 -0.18 -0.82 -0.26 -1.24 c-0.1 -0.54 -0.18 -1.1 -0.28 -1.64 c-0.02 -0.18 -0.06 -0.34 -0.12 -0.52 c-0.1 -0.34 -0.18 -0.7 -0.24 -1.06 c-0.04 -0.2 -0.04 -0.38 -0.04 -0.58 c0 -0.32 -0.04 -0.66 -0.12 -0.98 c-0.06 -0.36 -0.12 -0.7 -0.14 -1.06 c-0.02 -0.32 -0.08 -0.64 -0.12 -0.96 l0 -0.06 c-0.1 -0.18 -0.08 -0.38 -0.08 -0.56 c0 -0.1 0.02 -0.18 0 -0.28 c-0.02 -0.32 0.08 -0.66 0.12 -0.98 c0 -0.06 0.04 -0.1 0.1 -0.12 l0.36 -0.06 c0.26 -0.02 0.5 0 0.74 0.04 c0.12 0.02 0.24 0.02 0.36 0.08 c0.04 0.02 0.06 0.06 0.08 0.1 c0 0.12 0.02 0.24 0 0.36 c-0.02 0.32 -0.02 0.62 0 0.94 l0.18 1.68 c0.02 0.12 0.06 0.24 0.08 0.36 l0.06 0.3 c0 0.16 0.02 0.34 0.06 0.5 c0.02 0.14 0.04 0.28 0.04 0.42 l0 0.28 c0.02 0.48 0.02 0.48 0.16 0.94 c0.02 0.02 0.04 0.06 0.04 0.1 c0.06 0.44 0.2 0.86 0.24 1.3 s0.12 0.86 0.2 1.28 l0.18 0.78 c0.02 0.14 0.06 0.28 0.12 0.42 s0.12 0.28 0.14 0.44 c0.02 0.1 0.06 0.22 0.08 0.32 c0.08 0.22 0.14 0.44 0.2 0.68 c0.04 0.12 0.08 0.24 0.16 0.36 l0.02 0.02 c0.02 0 0.04 -0.02 0.06 -0.02 c0.02 -0.14 0.06 -0.26 0.08 -0.4 c0.04 -0.26 0.08 -0.52 0.08 -0.8 c0 -0.1 0.02 -0.22 0.04 -0.32 c0.04 -0.22 0.08 -0.42 0.1 -0.62 c0.04 -0.2 0.1 -0.4 0.16 -0.6 c0.02 -0.08 0.04 -0.18 0.08 -0.28 c0 -0.06 -0.02 -0.1 -0.08 -0.12 c-0.02 -0.02 -0.04 -0.02 -0.06 -0.04 c-0.04 -0.02 -0.04 -0.1 0 -0.12 s0.1 -0.04 0.16 -0.06 z M170.30100000000002 14.440000000000001 l-0.06 0.12 l0 0.22 c-0.02 0.78 -0.02 1.56 -0.04 2.34 c-0.02 0.6 -0.06 1.18 -0.1 1.78 c0 0.1 -0.04 0.2 -0.04 0.3 c-0.02 0.08 -0.06 0.12 -0.14 0.16 c-0.08 0.02 -0.16 0.04 -0.24 0.08 c-0.28 0.06 -0.54 0.08 -0.82 0 c-0.08 -0.04 -0.14 -0.1 -0.16 -0.18 c-0.02 -0.06 -0.04 -0.12 -0.04 -0.18 c-0.04 -0.34 -0.08 -0.66 -0.08 -1 c-0.04 -0.58 -0.02 -1.16 -0.04 -1.74 c-0.02 -0.48 -0.02 -0.96 -0.04 -1.42 c0 -0.06 0.02 -0.12 -0.04 -0.18 c-0.12 -0.04 -0.24 -0.02 -0.36 0 c-0.7 0.12 -1.42 0.24 -2.12 0.36 l-0.18 0.06 c-0.02 0.02 -0.06 0.06 -0.06 0.08 c-0.02 0.08 -0.02 0.14 -0.02 0.22 l-0.06 2.82 c0 0.2 -0.04 0.38 -0.06 0.56 c-0.02 0.1 0.02 0.24 -0.08 0.32 c-0.06 0.06 -0.18 0.06 -0.26 0.1 c-0.14 0.06 -0.3 0.08 -0.44 0.08 l-0.3 0 c-0.12 0 -0.22 -0.04 -0.32 -0.08 c-0.06 0 -0.1 -0.04 -0.1 -0.08 c-0.06 -0.26 -0.12 -0.52 -0.12 -0.78 c-0.02 -0.84 -0.02 -1.68 -0.02 -2.52 l0 -0.34 c-0.02 -0.1 -0.06 -0.14 -0.14 -0.14 c-0.18 0 -0.34 0.02 -0.52 0.04 c-0.34 0.02 -0.66 -0.04 -1 -0.1 c-0.04 -0.02 -0.08 -0.06 -0.1 -0.1 c-0.04 -0.18 -0.1 -0.34 -0.12 -0.5 c-0.02 -0.18 0 -0.32 0.02 -0.48 c0.02 -0.08 0.08 -0.14 0.16 -0.16 c0.14 -0.04 0.28 -0.06 0.44 -0.06 c0.38 -0.02 0.76 -0.1 1.12 -0.18 c0.04 0 0.08 -0.02 0.1 -0.04 c0.06 -0.12 0.04 -0.26 0.04 -0.38 l0 -3 l0 -1.58 c-0.02 -0.22 0.02 -0.44 0.12 -0.64 c0.18 -0.42 0.36 -0.84 0.56 -1.26 c0 -0.04 0.04 -0.08 0.08 -0.12 c0 -0.02 0.04 -0.02 0.04 -0.04 c0.2 -0.32 0.52 -0.48 0.78 -0.68 c0.14 -0.1 0.28 -0.16 0.46 -0.16 c0.1 -0.02 0.2 -0.04 0.3 -0.04 c0.06 -0.02 0.14 -0.02 0.2 -0.04 c0.18 -0.06 0.34 -0.1 0.52 -0.02 c0.04 0.02 0.1 0.02 0.14 0.02 c0.14 -0.06 0.26 -0.02 0.4 0 c0.22 0.06 0.46 0.14 0.64 0.28 c0.12 0.08 0.18 0.2 0.32 0.26 c0.12 0.04 0.18 0.16 0.26 0.24 c0.16 0.16 0.3 0.32 0.46 0.46 c0.12 0.12 0.22 0.26 0.32 0.4 c0.04 0.06 0.06 0.16 0.1 0.24 c0.06 0.18 0.12 0.34 0.12 0.54 c0 0.1 0.02 0.2 0.04 0.28 c0.04 0.18 0.08 0.34 0.12 0.52 c0.14 0.4 0.16 0.82 0.26 1.22 c0.06 0.32 0.06 0.62 0.06 0.94 l0 0.02 l0 1.38 c0 0.06 0 0.12 0.08 0.18 c0.42 -0.04 0.88 -0.02 1.32 -0.02 c0.06 0 0.12 0 0.18 0.02 c0.02 0 0.08 0.04 0.08 0.08 c0.02 0.14 0.06 0.3 0.08 0.46 c0.02 0.22 0 0.42 0 0.64 c0 0.08 -0.02 0.14 -0.04 0.22 s-0.08 0.14 -0.18 0.16 c-0.08 0.02 -0.14 0.02 -0.22 0.02 l-0.7 0 c-0.2 0 -0.38 0 -0.56 0.02 z M168.48100000000002 11.64 l0 -1.2 c0 -0.14 0 -0.28 -0.08 -0.42 c-0.04 -0.06 -0.04 -0.12 -0.06 -0.18 c-0.02 -0.2 -0.08 -0.38 -0.18 -0.56 l-0.12 -0.3 c-0.08 -0.26 -0.2 -0.5 -0.4 -0.7 c-0.12 -0.12 -0.22 -0.24 -0.34 -0.36 c-0.04 -0.04 -0.12 -0.08 -0.18 -0.1 c-0.1 -0.04 -0.22 -0.06 -0.34 -0.06 c-0.36 0.02 -0.5 0.14 -0.56 0.46 c-0.02 0.02 -0.02 0.04 -0.02 0.06 c0 0.16 -0.06 0.3 -0.1 0.44 c-0.06 0.18 -0.1 0.36 -0.12 0.54 c-0.02 0.14 -0.04 0.26 -0.1 0.4 c-0.1 0.28 -0.16 0.6 -0.16 0.9 c0 0.24 -0.02 0.48 -0.02 0.7 c0 0.1 0 0.2 0.02 0.3 c0.04 0.08 0.02 0.18 0.02 0.26 c-0.06 0.26 -0.06 0.52 -0.04 0.78 c0.02 0.24 0.04 0.48 0.04 0.74 c0 0.04 0 0.1 0.02 0.14 c0 0.02 0.02 0.04 0.04 0.04 c0.06 0.02 0.1 0.02 0.16 0 c0.3 -0.04 0.6 -0.08 0.9 -0.14 c0.42 -0.1 0.84 -0.16 1.24 -0.24 c0.1 0 0.18 -0.02 0.26 -0.04 s0.12 -0.06 0.12 -0.16 l0 -0.26 l0 -1.04 z M179.998 13.2 c0.02 -1.48 0.02 -2.96 0.02 -4.44 c0 -0.26 0.02 -0.54 0.04 -0.8 c0 -0.14 -0.02 -0.28 -0.02 -0.4 c0 -0.02 -0.02 -0.04 -0.04 -0.04 c-0.08 -0.02 -0.16 -0.02 -0.22 -0.02 l-2.22 0 l-0.36 0 c-0.06 0 -0.12 -0.02 -0.16 -0.04 c-0.04 0 -0.08 -0.04 -0.1 -0.08 c0 -0.08 -0.02 -0.14 -0.04 -0.22 c-0.12 -0.34 -0.12 -0.68 -0.08 -1.04 c0.02 -0.08 0.06 -0.16 0.08 -0.24 c0.02 -0.04 0.06 -0.08 0.1 -0.08 c0.04 -0.02 0.08 -0.02 0.12 -0.02 l0.26 0 l6.3 0 l0.5 0 c0.06 0 0.1 0 0.16 0.02 c0.06 0 0.1 0.02 0.12 0.08 c0.1 0.48 0.14 0.96 0.02 1.42 c-0.04 0.1 -0.1 0.16 -0.18 0.18 c-0.12 0 -0.22 0.02 -0.32 0.02 l-1.94 0 l-0.3 0 c-0.04 0.02 -0.08 0.06 -0.08 0.1 l0 0.12 c0.04 0.2 0.02 0.4 0.02 0.58 l0 9.54 c0 0.2 -0.02 0.4 -0.02 0.6 l0 0.54 l0 0.34 c-0.02 0.06 -0.06 0.12 -0.12 0.14 c-0.3 0.04 -0.6 0.08 -0.92 0.08 c-0.14 -0.02 -0.28 -0.04 -0.4 -0.08 c-0.08 -0.02 -0.12 -0.08 -0.12 -0.16 c-0.02 -0.22 -0.04 -0.44 -0.04 -0.68 c-0.04 -0.74 -0.04 -1.48 -0.04 -2.22 l0 -1.34 l0 -1 l0 -0.86 l-0.02 0 z M196.275 5.960000000000001 c0 0.02 0.02 0.02 0.02 0.04 c0.08 0.34 0.1 0.7 0.1 1.08 l-0.02 0.02 c-0.06 0.32 -0.04 0.38 -0.4 0.4 c-0.12 0.02 -0.26 0.02 -0.4 0.02 l-3.14 0 c-0.12 0 -0.24 0 -0.36 0.02 c-0.1 0 -0.14 0.04 -0.14 0.12 l0 0.36 s0.02 0.24 0.02 0.36 l0 0.66 c0 0.28 0 0.54 0.04 0.82 l0 0.3 l0 2.56 c0 0.12 -0.02 0.24 0.02 0.38 c0.06 -0.02 0.1 0 0.14 -0.02 c0.46 -0.16 0.92 -0.24 1.38 -0.26 c0.32 -0.04 0.66 -0.06 0.98 -0.12 c0.16 -0.04 0.32 -0.06 0.5 -0.06 c0.18 -0.02 0.32 -0.04 0.48 -0.14 c0.04 -0.02 0.12 -0.02 0.16 0.04 c0.08 0.1 0.18 0.18 0.3 0.26 c0.18 0.12 0.28 0.44 0.14 0.72 c-0.16 0.3 -0.24 0.42 -0.66 0.5 c-0.14 0.02 -0.26 0.04 -0.4 0.06 c-0.42 0.06 -0.84 0.12 -1.26 0.16 c-0.06 0.02 -0.14 0.02 -0.2 0.02 c-0.52 0.04 -1 0.18 -1.46 0.4 c-0.08 0.04 -0.12 0.1 -0.12 0.2 l0 0.54 l0 2 c0 0.1 0 0.2 0.02 0.32 c0 0.04 0.02 0.06 0.06 0.08 l0.32 0 l3.16 0 l0.24 0 c0.36 0.02 0.32 -0.02 0.38 0.32 c0.04 0.28 0.04 0.54 0.04 0.8 l0 0.08 c-0.1 0.3 -0.06 0.36 -0.42 0.36 c-0.54 0.02 -1.08 0.02 -1.64 0 l-1.16 0 c-0.48 0 -0.98 0 -1.48 -0.02 c-0.28 -0.02 -0.54 -0.06 -0.82 -0.1 c-0.06 0 -0.1 -0.06 -0.12 -0.12 c-0.16 -0.44 -0.16 -0.44 -0.16 -0.92 c-0.02 -0.54 -0.02 -1.1 -0.02 -1.66 l0 -4.02 c0.02 -1.2 0.04 -2.42 0.04 -3.62 c0 -0.4 0.04 -0.8 0.04 -1.2 c0 -0.08 0.02 -0.18 -0.06 -0.26 c-0.04 -0.16 -0.1 -0.3 -0.14 -0.44 c-0.04 -0.32 -0.06 -0.64 0.04 -0.94 c0.04 -0.08 0.08 -0.12 0.16 -0.12 l0.26 0 l5.22 0 c0.1 0 0.22 -0.02 0.32 0.02 z"></path></g>
			</g>
		</svg>
	